# Blender v3.2.0 OBJ File: 'castlenew.blend'
# www.blender.org
o right_eye.018_Cylinder.064
v -0.500027 1.973001 1.802043
v -0.538887 1.973001 2.150086
v -0.432127 1.966272 1.809625
v -0.470987 1.966272 2.157667
v -0.366836 1.946343 1.816914
v -0.405697 1.946343 2.164957
v -0.306664 1.913980 1.823633
v -0.345525 1.913980 2.171676
v -0.253923 1.870428 1.829522
v -0.292784 1.870428 2.177565
v -0.210640 1.817359 1.834355
v -0.249500 1.817359 2.182397
v -0.178477 1.756813 1.837946
v -0.217337 1.756813 2.185988
v -0.158671 1.691117 1.840157
v -0.197532 1.691117 2.188200
v -0.151984 1.622795 1.840904
v -0.190844 1.622795 2.188946
v -0.158671 1.554473 1.840157
v -0.197532 1.554473 2.188200
v -0.178477 1.488777 1.837946
v -0.217337 1.488777 2.185988
v -0.210640 1.428231 1.834354
v -0.249500 1.428231 2.182397
v -0.253923 1.375162 1.829522
v -0.292784 1.375162 2.177565
v -0.306664 1.331610 1.823633
v -0.345525 1.331610 2.171676
v -0.366836 1.299247 1.816914
v -0.405697 1.299247 2.164957
v -0.432127 1.279319 1.809625
v -0.470987 1.279319 2.157667
v -0.500027 1.272590 1.802043
v -0.538887 1.272590 2.150086
v -0.567926 1.279319 1.794462
v -0.606787 1.279319 2.142505
v -0.633217 1.299247 1.787172
v -0.672077 1.299247 2.135215
v -0.693389 1.331610 1.780454
v -0.732249 1.331610 2.128496
v -0.746130 1.375162 1.774565
v -0.784990 1.375162 2.122608
v -0.789414 1.428231 1.769732
v -0.828274 1.428231 2.117775
v -0.821576 1.488777 1.766141
v -0.860437 1.488777 2.114184
v -0.841382 1.554473 1.763930
v -0.880242 1.554473 2.111972
v -0.848070 1.622795 1.763183
v -0.886930 1.622795 2.111226
v -0.841382 1.691117 1.763930
v -0.880242 1.691117 2.111972
v -0.821576 1.756813 1.766141
v -0.860437 1.756813 2.114184
v -0.789414 1.817359 1.769732
v -0.828274 1.817359 2.117775
v -0.746130 1.870428 1.774565
v -0.784991 1.870428 2.122608
v -0.693389 1.913980 1.780454
v -0.732249 1.913980 2.128496
v -0.633217 1.946343 1.787172
v -0.672077 1.946343 2.135215
v -0.567926 1.966272 1.794462
v -0.606787 1.966272 2.142505
vt 1.000000 1.000000
vt 0.968750 0.500000
vt 1.000000 0.500000
vt 0.968750 1.000000
vt 0.937500 0.500000
vt 0.937500 1.000000
vt 0.906250 0.500000
vt 0.906250 1.000000
vt 0.875000 0.500000
vt 0.875000 1.000000
vt 0.843750 0.500000
vt 0.843750 1.000000
vt 0.812500 0.500000
vt 0.812500 1.000000
vt 0.781250 0.500000
vt 0.781250 1.000000
vt 0.750000 0.500000
vt 0.750000 1.000000
vt 0.718750 0.500000
vt 0.718750 1.000000
vt 0.687500 0.500000
vt 0.687500 1.000000
vt 0.656250 0.500000
vt 0.656250 1.000000
vt 0.625000 0.500000
vt 0.625000 1.000000
vt 0.593750 0.500000
vt 0.593750 1.000000
vt 0.562500 0.500000
vt 0.562500 1.000000
vt 0.531250 0.500000
vt 0.531250 1.000000
vt 0.500000 0.500000
vt 0.500000 1.000000
vt 0.468750 0.500000
vt 0.468750 1.000000
vt 0.437500 0.500000
vt 0.437500 1.000000
vt 0.406250 0.500000
vt 0.406250 1.000000
vt 0.375000 0.500000
vt 0.375000 1.000000
vt 0.343750 0.500000
vt 0.343750 1.000000
vt 0.312500 0.500000
vt 0.312500 1.000000
vt 0.281250 0.500000
vt 0.281250 1.000000
vt 0.250000 0.500000
vt 0.250000 1.000000
vt 0.218750 0.500000
vt 0.218750 1.000000
vt 0.187500 0.500000
vt 0.187500 1.000000
vt 0.156250 0.500000
vt 0.156250 1.000000
vt 0.125000 0.500000
vt 0.125000 1.000000
vt 0.093750 0.500000
vt 0.093750 1.000000
vt 0.062500 0.500000
vt 0.028269 0.341844
vt 0.158156 0.028269
vt 0.471731 0.158156
vt 0.062500 1.000000
vt 0.031250 0.500000
vt 0.031250 1.000000
vt 0.000000 0.500000
vt 0.985388 0.296822
vt 0.796822 0.014612
vt 0.514612 0.203178
vt 0.341844 0.471731
vt 0.296822 0.485388
vt 0.158156 0.471731
vt 0.250000 0.490000
vt 0.203178 0.485388
vt 0.116663 0.449553
vt 0.080294 0.419706
vt 0.050447 0.383337
vt 0.014612 0.296822
vt 0.010000 0.250000
vt 0.014612 0.203178
vt 0.028269 0.158156
vt 0.050447 0.116663
vt 0.080294 0.080294
vt 0.116663 0.050447
vt 0.203178 0.014612
vt 0.250000 0.010000
vt 0.296822 0.014612
vt 0.341844 0.028269
vt 0.383337 0.050447
vt 0.419706 0.080294
vt 0.449553 0.116663
vt 0.485388 0.203178
vt 0.490000 0.250000
vt 0.485388 0.296822
vt 0.471731 0.341844
vt 0.449553 0.383337
vt 0.419706 0.419706
vt 0.383337 0.449553
vt 0.000000 1.000000
vt 0.703178 0.485388
vt 0.750000 0.490000
vt 0.796822 0.485388
vt 0.841844 0.471731
vt 0.883337 0.449553
vt 0.919706 0.419706
vt 0.949553 0.383337
vt 0.971731 0.341844
vt 0.990000 0.250000
vt 0.985388 0.203178
vt 0.971731 0.158156
vt 0.949553 0.116663
vt 0.919706 0.080294
vt 0.883337 0.050447
vt 0.841844 0.028269
vt 0.750000 0.010000
vt 0.703178 0.014612
vt 0.658156 0.028269
vt 0.616663 0.050447
vt 0.580294 0.080294
vt 0.550447 0.116663
vt 0.528269 0.158156
vt 0.510000 0.250000
vt 0.514612 0.296822
vt 0.528269 0.341844
vt 0.550447 0.383337
vt 0.580294 0.419706
vt 0.616663 0.449553
vt 0.658156 0.471731
vn 0.0974 0.9952 0.0109
vn 0.2885 0.9569 0.0322
vn 0.4685 0.8819 0.0523
vn 0.6305 0.7730 0.0704
vn 0.7682 0.6344 0.0858
vn 0.8765 0.4714 0.0979
vn 0.9510 0.2903 0.1062
vn 0.9890 0.0980 0.1104
vn 0.9890 -0.0980 0.1104
vn 0.9510 -0.2903 0.1062
vn 0.8765 -0.4714 0.0979
vn 0.7682 -0.6344 0.0858
vn 0.6305 -0.7730 0.0704
vn 0.4685 -0.8819 0.0523
vn 0.2885 -0.9569 0.0322
vn 0.0974 -0.9952 0.0109
vn -0.0974 -0.9952 -0.0109
vn -0.2885 -0.9569 -0.0322
vn -0.4685 -0.8819 -0.0523
vn -0.6305 -0.7730 -0.0704
vn -0.7682 -0.6344 -0.0858
vn -0.8765 -0.4714 -0.0979
vn -0.9510 -0.2903 -0.1062
vn -0.9890 -0.0980 -0.1104
vn -0.9890 0.0980 -0.1104
vn -0.9510 0.2903 -0.1062
vn -0.8765 0.4714 -0.0979
vn -0.7682 0.6344 -0.0858
vn -0.6305 0.7730 -0.0704
vn -0.4685 0.8819 -0.0523
vn -0.1110 -0.0000 0.9938
vn -0.2885 0.9569 -0.0322
vn -0.0974 0.9952 -0.0109
vn 0.1110 -0.0000 -0.9938
vn -0.1109 0.0000 0.9938
vn 0.1109 -0.0000 -0.9938
s off
f 2/1/1 3/2/1 1/3/1
f 4/4/2 5/5/2 3/2/2
f 6/6/3 7/7/3 5/5/3
f 8/8/4 9/9/4 7/7/4
f 10/10/5 11/11/5 9/9/5
f 12/12/6 13/13/6 11/11/6
f 14/14/7 15/15/7 13/13/7
f 16/16/8 17/17/8 15/15/8
f 18/18/9 19/19/9 17/17/9
f 20/20/10 21/21/10 19/19/10
f 22/22/11 23/23/11 21/21/11
f 24/24/12 25/25/12 23/23/12
f 26/26/13 27/27/13 25/25/13
f 28/28/14 29/29/14 27/27/14
f 30/30/15 31/31/15 29/29/15
f 32/32/16 33/33/16 31/31/16
f 34/34/17 35/35/17 33/33/17
f 36/36/18 37/37/18 35/35/18
f 38/38/19 39/39/19 37/37/19
f 40/40/20 41/41/20 39/39/20
f 42/42/21 43/43/21 41/41/21
f 44/44/22 45/45/22 43/43/22
f 46/46/23 47/47/23 45/45/23
f 48/48/24 49/49/24 47/47/24
f 50/50/25 51/51/25 49/49/25
f 52/52/26 53/53/26 51/51/26
f 54/54/27 55/55/27 53/53/27
f 56/56/28 57/57/28 55/55/28
f 58/58/29 59/59/29 57/57/29
f 60/60/30 61/61/30 59/59/30
f 54/62/31 38/63/31 22/64/31
f 62/65/32 63/66/32 61/61/32
f 64/67/33 1/68/33 63/66/33
f 15/69/34 31/70/34 47/71/34
f 2/1/1 4/4/1 3/2/1
f 4/4/2 6/6/2 5/5/2
f 6/6/3 8/8/3 7/7/3
f 8/8/4 10/10/4 9/9/4
f 10/10/5 12/12/5 11/11/5
f 12/12/6 14/14/6 13/13/6
f 14/14/7 16/16/7 15/15/7
f 16/16/8 18/18/8 17/17/8
f 18/18/9 20/20/9 19/19/9
f 20/20/10 22/22/10 21/21/10
f 22/22/11 24/24/11 23/23/11
f 24/24/12 26/26/12 25/25/12
f 26/26/13 28/28/13 27/27/13
f 28/28/14 30/30/14 29/29/14
f 30/30/15 32/32/15 31/31/15
f 32/32/16 34/34/16 33/33/16
f 34/34/17 36/36/17 35/35/17
f 36/36/18 38/38/18 37/37/18
f 38/38/19 40/40/19 39/39/19
f 40/40/20 42/42/20 41/41/20
f 42/42/21 44/44/21 43/43/21
f 44/44/22 46/46/22 45/45/22
f 46/46/23 48/48/23 47/47/23
f 48/48/24 50/50/24 49/49/24
f 50/50/25 52/52/25 51/51/25
f 52/52/26 54/54/26 53/53/26
f 54/54/27 56/56/27 55/55/27
f 56/56/28 58/58/28 57/57/28
f 58/58/29 60/60/29 59/59/29
f 60/60/30 62/65/30 61/61/30
f 6/72/31 4/73/31 62/74/31
f 4/73/31 2/75/31 62/74/31
f 2/75/31 64/76/31 62/74/31
f 62/74/35 60/77/35 58/78/35
f 58/78/31 56/79/31 62/74/31
f 56/79/31 54/62/31 62/74/31
f 54/62/31 52/80/31 50/81/31
f 50/81/31 48/82/31 46/83/31
f 46/83/31 44/84/31 42/85/31
f 42/85/35 40/86/35 38/63/35
f 38/63/31 36/87/31 34/88/31
f 34/88/31 32/89/31 30/90/31
f 30/90/31 28/91/31 26/92/31
f 26/92/31 24/93/31 22/64/31
f 22/64/35 20/94/35 18/95/35
f 18/95/35 16/96/35 14/97/35
f 14/97/31 12/98/31 10/99/31
f 10/99/31 8/100/31 6/72/31
f 54/62/31 50/81/31 38/63/31
f 50/81/31 46/83/31 38/63/31
f 46/83/31 42/85/31 38/63/31
f 38/63/31 34/88/31 30/90/31
f 30/90/31 26/92/31 38/63/31
f 26/92/31 22/64/31 38/63/31
f 22/64/31 18/95/31 6/72/31
f 18/95/31 14/97/31 6/72/31
f 14/97/31 10/99/31 6/72/31
f 6/72/31 62/74/31 54/62/31
f 6/72/31 54/62/31 22/64/31
f 62/65/32 64/67/32 63/66/32
f 64/67/33 2/101/33 1/68/33
f 63/102/34 1/103/34 3/104/34
f 3/104/34 5/105/34 7/106/34
f 7/106/36 9/107/36 11/108/36
f 11/108/36 13/109/36 15/69/36
f 15/69/34 17/110/34 19/111/34
f 19/111/36 21/112/36 23/113/36
f 23/113/34 25/114/34 27/115/34
f 27/115/34 29/116/34 31/70/34
f 31/70/34 33/117/34 35/118/34
f 35/118/34 37/119/34 39/120/34
f 39/120/34 41/121/34 43/122/34
f 43/122/34 45/123/34 47/71/34
f 47/71/36 49/124/36 51/125/36
f 51/125/34 53/126/34 47/71/34
f 53/126/34 55/127/34 47/71/34
f 55/127/34 57/128/34 59/129/34
f 59/129/34 61/130/34 55/127/34
f 61/130/34 63/102/34 55/127/34
f 63/102/34 3/104/34 15/69/34
f 3/104/34 7/106/34 15/69/34
f 7/106/34 11/108/34 15/69/34
f 15/69/34 19/111/34 23/113/34
f 23/113/34 27/115/34 15/69/34
f 27/115/34 31/70/34 15/69/34
f 31/70/34 35/118/34 47/71/34
f 35/118/34 39/120/34 47/71/34
f 39/120/34 43/122/34 47/71/34
f 47/71/34 55/127/34 63/102/34
f 63/102/34 15/69/34 47/71/34
o left_eye.018_Cylinder.063
v 1.101455 1.995017 2.153031
v 1.048390 1.995017 1.806869
v 1.168988 1.988288 2.142678
v 1.115923 1.988288 1.796516
v 1.233926 1.968359 2.132724
v 1.180860 1.968359 1.786562
v 1.293773 1.935996 2.123549
v 1.240707 1.935996 1.777387
v 1.346229 1.892444 2.115508
v 1.293163 1.892444 1.769346
v 1.389278 1.839375 2.108908
v 1.336213 1.839375 1.762747
v 1.421267 1.778829 2.104005
v 1.368201 1.778829 1.757843
v 1.440966 1.713133 2.100985
v 1.387900 1.713133 1.754823
v 1.447617 1.644811 2.099965
v 1.394552 1.644811 1.753803
v 1.440966 1.576489 2.100985
v 1.387900 1.576489 1.754823
v 1.421267 1.510793 2.104005
v 1.368201 1.510793 1.757843
v 1.389278 1.450247 2.108908
v 1.336213 1.450247 1.762747
v 1.346229 1.397178 2.115508
v 1.293163 1.397178 1.769346
v 1.293773 1.353626 2.123549
v 1.240707 1.353626 1.777387
v 1.233926 1.321263 2.132724
v 1.180860 1.321263 1.786562
v 1.168988 1.301335 2.142678
v 1.115923 1.301335 1.796516
v 1.101455 1.294606 2.153031
v 1.048390 1.294606 1.806869
v 1.033923 1.301335 2.163383
v 0.980857 1.301335 1.817222
v 0.968985 1.321263 2.173338
v 0.915919 1.321263 1.827176
v 0.909138 1.353626 2.182513
v 0.856073 1.353626 1.836351
v 0.856682 1.397178 2.190554
v 0.803616 1.397178 1.844392
v 0.813632 1.450247 2.197153
v 0.760567 1.450247 1.850991
v 0.781644 1.510793 2.202057
v 0.728578 1.510793 1.855895
v 0.761945 1.576489 2.205077
v 0.708879 1.576489 1.858915
v 0.755294 1.644811 2.206097
v 0.702228 1.644811 1.859935
v 0.761945 1.713133 2.205077
v 0.708879 1.713133 1.858915
v 0.781644 1.778829 2.202057
v 0.728578 1.778829 1.855895
v 0.813632 1.839375 2.197153
v 0.760567 1.839375 1.850991
v 0.856682 1.892444 2.190554
v 0.803616 1.892444 1.844392
v 0.909138 1.935996 2.182513
v 0.856073 1.935996 1.836351
v 0.968985 1.968359 2.173338
v 0.915919 1.968359 1.827176
v 1.033923 1.988288 2.163383
v 0.980857 1.988288 1.817222
vt 1.000000 1.000000
vt 1.000000 0.500000
vt 0.968750 0.500000
vt 0.968750 1.000000
vt 0.937500 0.500000
vt 0.937500 1.000000
vt 0.906250 0.500000
vt 0.906250 1.000000
vt 0.875000 0.500000
vt 0.875000 1.000000
vt 0.843750 0.500000
vt 0.843750 1.000000
vt 0.812500 0.500000
vt 0.812500 1.000000
vt 0.781250 0.500000
vt 0.781250 1.000000
vt 0.750000 0.500000
vt 0.750000 1.000000
vt 0.718750 0.500000
vt 0.718750 1.000000
vt 0.687500 0.500000
vt 0.687500 1.000000
vt 0.656250 0.500000
vt 0.656250 1.000000
vt 0.625000 0.500000
vt 0.625000 1.000000
vt 0.593750 0.500000
vt 0.593750 1.000000
vt 0.562500 0.500000
vt 0.562500 1.000000
vt 0.531250 0.500000
vt 0.531250 1.000000
vt 0.500000 0.500000
vt 0.500000 1.000000
vt 0.468750 0.500000
vt 0.468750 1.000000
vt 0.437500 0.500000
vt 0.437500 1.000000
vt 0.406250 0.500000
vt 0.406250 1.000000
vt 0.375000 0.500000
vt 0.375000 1.000000
vt 0.343750 0.500000
vt 0.343750 1.000000
vt 0.312500 0.500000
vt 0.312500 1.000000
vt 0.281250 0.500000
vt 0.281250 1.000000
vt 0.250000 0.500000
vt 0.250000 1.000000
vt 0.218750 0.500000
vt 0.218750 1.000000
vt 0.187500 0.500000
vt 0.187500 1.000000
vt 0.156250 0.500000
vt 0.156250 1.000000
vt 0.125000 0.500000
vt 0.125000 1.000000
vt 0.093750 0.500000
vt 0.093750 1.000000
vt 0.062500 0.500000
vt 0.028269 0.341844
vt 0.471731 0.158156
vt 0.158156 0.028269
vt 0.062500 1.000000
vt 0.031250 0.500000
vt 0.031250 1.000000
vt 0.000000 0.500000
vt 0.985388 0.296822
vt 0.514612 0.203178
vt 0.796822 0.014612
vt 0.341844 0.471731
vt 0.158156 0.471731
vt 0.296822 0.485388
vt 0.250000 0.490000
vt 0.203178 0.485388
vt 0.080294 0.419706
vt 0.116663 0.449553
vt 0.050447 0.383337
vt 0.010000 0.250000
vt 0.014612 0.296822
vt 0.028269 0.158156
vt 0.014612 0.203178
vt 0.080294 0.080294
vt 0.050447 0.116663
vt 0.116663 0.050447
vt 0.250000 0.010000
vt 0.203178 0.014612
vt 0.341844 0.028269
vt 0.296822 0.014612
vt 0.419706 0.080294
vt 0.383337 0.050447
vt 0.449553 0.116663
vt 0.490000 0.250000
vt 0.485388 0.203178
vt 0.471731 0.341844
vt 0.485388 0.296822
vt 0.419706 0.419706
vt 0.449553 0.383337
vt 0.383337 0.449553
vt 0.000000 1.000000
vt 0.703178 0.485388
vt 0.796822 0.485388
vt 0.750000 0.490000
vt 0.883337 0.449553
vt 0.841844 0.471731
vt 0.949553 0.383337
vt 0.919706 0.419706
vt 0.971731 0.341844
vt 0.985388 0.203178
vt 0.990000 0.250000
vt 0.949553 0.116663
vt 0.971731 0.158156
vt 0.883337 0.050447
vt 0.919706 0.080294
vt 0.841844 0.028269
vt 0.703178 0.014612
vt 0.750000 0.010000
vt 0.616663 0.050447
vt 0.658156 0.028269
vt 0.550447 0.116663
vt 0.580294 0.080294
vt 0.528269 0.158156
vt 0.514612 0.296822
vt 0.510000 0.250000
vt 0.528269 0.341844
vt 0.550447 0.383337
vt 0.616663 0.449553
vt 0.580294 0.419706
vt 0.658156 0.471731
vn 0.0969 0.9952 -0.0149
vn 0.2869 0.9569 -0.0440
vn 0.4660 0.8819 -0.0714
vn 0.6271 0.7730 -0.0961
vn 0.7641 0.6344 -0.1171
vn 0.8717 0.4714 -0.1336
vn 0.9459 0.2903 -0.1450
vn 0.9837 0.0980 -0.1508
vn 0.9837 -0.0980 -0.1508
vn 0.9459 -0.2903 -0.1450
vn 0.8717 -0.4714 -0.1336
vn 0.7641 -0.6344 -0.1171
vn 0.6271 -0.7730 -0.0961
vn 0.4660 -0.8819 -0.0714
vn 0.2869 -0.9569 -0.0440
vn 0.0969 -0.9952 -0.0149
vn -0.0969 -0.9952 0.0149
vn -0.2869 -0.9569 0.0440
vn -0.4660 -0.8819 0.0714
vn -0.6271 -0.7730 0.0961
vn -0.7641 -0.6344 0.1171
vn -0.8717 -0.4714 0.1336
vn -0.9459 -0.2903 0.1450
vn -0.9837 -0.0980 0.1508
vn -0.9837 0.0980 0.1508
vn -0.9459 0.2903 0.1450
vn -0.8717 0.4714 0.1336
vn -0.7641 0.6344 0.1171
vn -0.6271 0.7730 0.0961
vn -0.4660 0.8819 0.0714
vn -0.1515 -0.0000 -0.9885
vn -0.2869 0.9569 0.0440
vn -0.0969 0.9952 0.0149
vn 0.1515 -0.0000 0.9885
vn -0.1516 0.0000 -0.9884
vn 0.1516 0.0000 0.9884
s off
f 66/131/37 65/132/37 67/133/37
f 68/134/38 67/133/38 69/135/38
f 70/136/39 69/135/39 71/137/39
f 72/138/40 71/137/40 73/139/40
f 74/140/41 73/139/41 75/141/41
f 76/142/42 75/141/42 77/143/42
f 78/144/43 77/143/43 79/145/43
f 80/146/44 79/145/44 81/147/44
f 82/148/45 81/147/45 83/149/45
f 84/150/46 83/149/46 85/151/46
f 86/152/47 85/151/47 87/153/47
f 88/154/48 87/153/48 89/155/48
f 90/156/49 89/155/49 91/157/49
f 92/158/50 91/157/50 93/159/50
f 94/160/51 93/159/51 95/161/51
f 96/162/52 95/161/52 97/163/52
f 98/164/53 97/163/53 99/165/53
f 100/166/54 99/165/54 101/167/54
f 102/168/55 101/167/55 103/169/55
f 104/170/56 103/169/56 105/171/56
f 106/172/57 105/171/57 107/173/57
f 108/174/58 107/173/58 109/175/58
f 110/176/59 109/175/59 111/177/59
f 112/178/60 111/177/60 113/179/60
f 114/180/61 113/179/61 115/181/61
f 116/182/62 115/181/62 117/183/62
f 118/184/63 117/183/63 119/185/63
f 120/186/64 119/185/64 121/187/64
f 122/188/65 121/187/65 123/189/65
f 124/190/66 123/189/66 125/191/66
f 118/192/67 86/193/67 102/194/67
f 126/195/68 125/191/68 127/196/68
f 128/197/69 127/196/69 65/198/69
f 79/199/70 111/200/70 95/201/70
f 66/131/37 67/133/37 68/134/37
f 68/134/38 69/135/38 70/136/38
f 70/136/39 71/137/39 72/138/39
f 72/138/40 73/139/40 74/140/40
f 74/140/41 75/141/41 76/142/41
f 76/142/42 77/143/42 78/144/42
f 78/144/43 79/145/43 80/146/43
f 80/146/44 81/147/44 82/148/44
f 82/148/45 83/149/45 84/150/45
f 84/150/46 85/151/46 86/152/46
f 86/152/47 87/153/47 88/154/47
f 88/154/48 89/155/48 90/156/48
f 90/156/49 91/157/49 92/158/49
f 92/158/50 93/159/50 94/160/50
f 94/160/51 95/161/51 96/162/51
f 96/162/52 97/163/52 98/164/52
f 98/164/53 99/165/53 100/166/53
f 100/166/54 101/167/54 102/168/54
f 102/168/55 103/169/55 104/170/55
f 104/170/56 105/171/56 106/172/56
f 106/172/57 107/173/57 108/174/57
f 108/174/58 109/175/58 110/176/58
f 110/176/59 111/177/59 112/178/59
f 112/178/60 113/179/60 114/180/60
f 114/180/61 115/181/61 116/182/61
f 116/182/62 117/183/62 118/184/62
f 118/184/63 119/185/63 120/186/63
f 120/186/64 121/187/64 122/188/64
f 122/188/65 123/189/65 124/190/65
f 124/190/66 125/191/66 126/195/66
f 70/202/67 126/203/67 68/204/67
f 68/204/67 126/203/67 66/205/67
f 66/205/67 126/203/67 128/206/67
f 126/203/67 122/207/67 124/208/67
f 122/207/67 126/203/67 120/209/67
f 120/209/67 126/203/67 118/192/67
f 118/192/71 114/210/71 116/211/71
f 114/210/71 110/212/71 112/213/71
f 110/212/67 106/214/67 108/215/67
f 106/214/67 102/194/67 104/216/67
f 102/194/67 98/217/67 100/218/67
f 98/217/67 94/219/67 96/220/67
f 94/219/67 90/221/67 92/222/67
f 90/221/67 86/193/67 88/223/67
f 86/193/67 82/224/67 84/225/67
f 82/224/67 78/226/67 80/227/67
f 78/226/67 74/228/67 76/229/67
f 74/228/67 70/202/67 72/230/67
f 118/192/67 102/194/67 114/210/67
f 114/210/67 102/194/67 110/212/67
f 110/212/67 102/194/67 106/214/67
f 102/194/67 94/219/67 98/217/67
f 94/219/67 102/194/67 90/221/67
f 90/221/67 102/194/67 86/193/67
f 86/193/67 70/202/67 82/224/67
f 82/224/67 70/202/67 78/226/67
f 78/226/67 70/202/67 74/228/67
f 70/202/67 118/192/67 126/203/67
f 70/202/67 86/193/67 118/192/67
f 126/195/68 127/196/68 128/197/68
f 128/197/69 65/198/69 66/231/69
f 127/232/70 67/233/70 65/234/70
f 67/233/70 71/235/70 69/236/70
f 71/235/70 75/237/70 73/238/70
f 75/237/70 79/199/70 77/239/70
f 79/199/72 83/240/72 81/241/72
f 83/240/70 87/242/70 85/243/70
f 87/242/70 91/244/70 89/245/70
f 91/244/70 95/201/70 93/246/70
f 95/201/70 99/247/70 97/248/70
f 99/247/70 103/249/70 101/250/70
f 103/249/70 107/251/70 105/252/70
f 107/251/72 111/200/72 109/253/72
f 111/200/72 115/254/72 113/255/72
f 115/254/70 111/200/70 117/256/70
f 117/256/70 111/200/70 119/257/70
f 119/257/70 123/258/70 121/259/70
f 123/258/70 119/257/70 125/260/70
f 125/260/70 119/257/70 127/232/70
f 127/232/70 79/199/70 67/233/70
f 67/233/70 79/199/70 71/235/70
f 71/235/70 79/199/70 75/237/70
f 79/199/70 87/242/70 83/240/70
f 87/242/70 79/199/70 91/244/70
f 91/244/70 79/199/70 95/201/70
f 95/201/70 111/200/70 99/247/70
f 99/247/70 111/200/70 103/249/70
f 103/249/70 111/200/70 107/251/70
f 111/200/70 127/232/70 119/257/70
f 127/232/70 111/200/70 79/199/70
