# Blender v3.2.0 OBJ File: 'castlenew.blend'
# www.blender.org
mtllib kayu1.mtl
o wood2_TradeTent1.007
v -84.793335 0.565721 279.801453
v -84.790512 0.101850 276.039795
v -84.790771 -0.755961 276.370239
v -80.197113 0.565720 279.804871
v -80.196869 1.423532 279.474487
v -80.430191 1.339593 279.256409
v -84.793091 1.423532 279.471039
v -84.559433 1.339594 279.253296
v -80.430389 0.627991 279.530518
v -84.557404 -0.525836 276.531982
v -84.557190 0.185766 276.257843
v -80.428162 -0.525836 276.535065
v -80.427948 0.185765 276.260925
v -80.194290 0.101849 276.043243
v -80.194550 -0.755962 276.373657
v -84.559631 0.627992 279.527435
v -88.769241 0.186958 277.730225
v -85.092316 -0.732286 277.742554
v -88.769241 -0.732284 277.730225
v -88.784668 -0.732284 282.326416
v -88.784668 0.186958 282.326416
v -88.550415 0.186958 282.093689
v -85.326569 0.186958 277.975281
v -85.092316 0.186957 277.742554
v -88.550415 -0.575614 282.093689
v -88.536575 0.186958 277.964478
v -88.536575 -0.575614 277.964478
v -85.326569 -0.575614 277.975281
v -85.340439 -0.575614 282.104462
v -85.340439 0.186958 282.104462
v -85.107727 0.186957 282.338745
v -85.107727 -0.732286 282.338745
v -86.073685 0.186958 286.808777
v -86.070938 -0.732285 283.131836
v -86.073685 -0.732285 286.808777
v -81.477478 -0.732286 286.812256
v -81.477478 0.186956 286.812256
v -81.710800 0.186956 286.578552
v -85.840027 0.186958 286.575500
v -86.070938 0.186958 283.131836
v -81.710800 -0.575616 286.578552
v -85.840027 -0.575614 286.575500
v -85.837631 0.186958 283.365479
v -85.837631 -0.575614 283.365479
v -81.708405 -0.575616 283.368591
v -81.708405 0.186956 283.368591
v -81.474731 0.186956 283.135254
v -81.474731 -0.732286 283.135254
v -86.406387 1.131043 286.808533
v -86.403641 0.211778 283.131592
v -86.406387 0.211778 286.808533
v -81.810150 0.211776 286.811981
v -81.810150 1.131042 286.811981
v -82.043472 1.131042 286.578308
v -86.172729 1.131043 286.575256
v -86.403641 1.131043 283.131592
v -82.043472 0.368446 286.578308
v -86.172729 0.368448 286.575256
v -86.170334 1.131043 283.365234
v -86.170334 0.368448 283.365234
v -82.041077 0.368446 283.368347
v -82.041077 1.131042 283.368347
v -81.807404 1.131042 283.135010
v -81.807404 0.211776 283.135010
v -88.991013 1.126234 277.730042
v -85.314056 0.206991 277.742371
v -88.991013 0.206992 277.730042
v -89.006439 0.206992 282.326233
v -89.006439 1.126234 282.326233
v -88.772156 1.126234 282.093536
v -88.758316 1.126234 277.964325
v -85.314056 1.126233 277.742371
v -88.772156 0.363662 282.093536
v -88.758316 0.363662 277.964325
v -85.548325 1.126233 277.975098
v -85.548325 0.363661 277.975098
v -85.562180 0.363661 282.104309
v -85.562180 1.126233 282.104309
v -85.329468 1.126233 282.338562
v -85.329468 0.206991 282.338562
vt 1.000000 0.000000
vt 0.000000 1.000000
vt 0.000000 0.000000
vt 0.000000 1.000000
vt 1.000000 0.000000
vt 1.000000 1.000000
vt 1.000000 1.000000
vt 0.000000 0.000000
vt 0.000000 0.000000
vt 0.000000 1.000000
vt 0.000000 1.000000
vt 1.000000 1.000000
vt 0.000000 0.000000
vt 1.000000 1.000000
vt 1.000000 1.000000
vt 1.000000 0.000000
vt 1.000000 0.000000
vt 1.000000 1.000000
vt 0.000000 1.000000
vt 0.000000 1.000000
vt 1.000000 1.000000
vt 0.000000 0.000000
vt 1.000000 0.000000
vt 0.000000 0.000000
vt 1.000000 0.000000
vt 0.000000 1.000000
vt 1.000000 1.000000
vt 0.000000 0.000000
vt 1.000000 0.000000
vt 0.000000 1.000000
vt 1.000000 0.000000
vt 1.000000 1.000000
vt 1.000000 1.000000
vt 0.000000 0.000000
vt 0.000000 0.000000
vt 0.000000 1.000000
vt 1.000000 1.000000
vt 0.000000 1.000000
vt 0.000000 0.000000
vt 0.000000 1.000000
vt 0.000000 1.000000
vt 1.000000 1.000000
vt 1.000000 0.000000
vt 1.000000 0.000000
vt 0.000000 1.000000
vt 1.000000 1.000000
vt 0.000000 1.000000
vt 1.000000 1.000000
vt 0.000000 0.000000
vt 1.000000 0.000000
vt 0.000000 0.000000
vt 1.000000 0.000000
vt 1.000000 1.000000
vt 0.000000 0.000000
vt 1.000000 0.000000
vt 0.000000 1.000000
vt 1.000000 0.000000
vt 1.000000 1.000000
vt 1.000000 1.000000
vt 0.000000 0.000000
vt 0.000000 0.000000
vt 0.000000 1.000000
vt 0.000000 1.000000
vt 0.000000 1.000000
vt 0.000000 0.000000
vt 0.000000 1.000000
vt 1.000000 1.000000
vt 1.000000 1.000000
vt 1.000000 0.000000
vt 1.000000 0.000000
vt 0.000000 1.000000
vt 1.000000 1.000000
vt 0.000000 1.000000
vt 1.000000 1.000000
vt 0.000000 0.000000
vt 1.000000 0.000000
vt 0.000000 0.000000
vt 1.000000 0.000000
vt 1.000000 1.000000
vt 0.000000 0.000000
vt 1.000000 0.000000
vt 0.000000 1.000000
vt 1.000000 0.000000
vt 1.000000 1.000000
vt 1.000000 1.000000
vt 0.000000 0.000000
vt 0.000000 0.000000
vt 0.000000 1.000000
vt 0.000000 1.000000
vt 0.000000 1.000000
vt 0.000000 0.000000
vt 0.000000 1.000000
vt 1.000000 1.000000
vt 1.000000 1.000000
vt 1.000000 0.000000
vt 1.000000 0.000000
vt 0.000000 1.000000
vt 1.000000 1.000000
vt 0.000000 1.000000
vt 1.000000 1.000000
vt 0.000000 0.000000
vt 1.000000 0.000000
vt 0.000000 0.000000
vt 1.000000 0.000000
vt 1.000000 1.000000
vt 0.000000 0.000000
vt 1.000000 0.000000
vt 0.000000 1.000000
vt 1.000000 0.000000
vt 1.000000 1.000000
vt 1.000000 1.000000
vt 0.000000 0.000000
vt 0.000000 0.000000
vt 0.000000 1.000000
vt 0.000000 1.000000
vt 0.000000 1.000000
vt 0.000000 0.000000
vt 0.000000 1.000000
vt 1.000000 1.000000
vt 1.000000 1.000000
vt 1.000000 0.000000
vt 1.000000 0.000000
vt 0.000000 1.000000
vt 1.000000 1.000000
vt 0.000000 1.000000
vt 1.000000 1.000000
vt 0.000000 0.000000
vt 1.000000 0.000000
vt 0.000000 0.000000
vt 1.000000 0.000000
vn -1.0000 0.0000 -0.0008
vn -0.0003 -0.9332 0.3594
vn -0.0007 0.3594 0.9332
vn 0.0002 0.9332 -0.3594
vn 0.0003 0.9332 -0.3594
vn 0.0007 -0.3595 -0.9332
vn 1.0000 0.0000 0.0007
vn 1.0000 -0.0000 0.0008
vn -1.0000 -0.0000 -0.0007
vn -0.0007 0.3595 0.9331
vn 0.0003 0.9332 -0.3595
vn 0.0007 -0.3594 -0.9332
vn 0.0007 -0.3595 -0.9331
vn 0.0033 0.0000 -1.0000
vn 0.0034 0.0000 -1.0000
vn -0.0000 -1.0000 -0.0000
vn -1.0000 0.0000 -0.0034
vn 0.0000 1.0000 0.0000
vn 1.0000 0.0000 0.0034
vn -0.0034 0.0000 1.0000
vn -0.0007 0.0000 1.0000
vn -0.0008 0.0000 1.0000
vn 0.0007 0.0000 -1.0000
vn 0.0008 0.0000 -1.0000
vn -0.0033 0.0000 1.0000
usemtl Wood1.001
s 1
f 1/1/1 2/2/1 3/3/1
f 3/4/2 4/5/2 1/6/2
f 5/7/3 1/8/3 4/5/3
f 6/9/4 7/10/4 5/7/4
f 8/11/4 2/2/5 7/12/4
f 9/13/6 8/11/6 6/9/6
f 8/11/7 10/14/8 11/15/8
f 10/14/5 9/13/5 12/16/5
f 12/16/1 6/9/9 13/17/1
f 10/14/10 13/17/10 11/15/10
f 14/18/11 6/9/4 5/19/4
f 11/15/5 14/20/11 2/21/5
f 14/18/8 4/22/8 15/23/8
f 2/21/6 15/24/12 3/25/6
f 1/1/1 7/12/9 2/2/1
f 3/4/2 15/24/2 4/5/2
f 5/7/3 7/10/3 1/8/3
f 6/9/4 8/11/4 7/10/4
f 8/11/4 11/15/5 2/2/5
f 9/13/6 16/26/13 8/11/6
f 8/11/7 16/26/7 10/14/8
f 10/14/5 16/26/5 9/13/5
f 12/16/1 9/13/9 6/9/9
f 10/14/10 12/16/10 13/17/10
f 14/18/11 13/17/11 6/9/4
f 11/15/5 13/17/11 14/20/11
f 14/18/8 5/19/7 4/22/8
f 2/21/6 14/20/12 15/24/12
f 17/27/14 18/28/15 19/29/14
f 18/30/16 20/31/16 19/32/16
f 21/33/17 19/34/17 20/31/17
f 22/35/18 17/36/18 21/33/18
f 17/27/18 23/37/18 24/38/18
f 25/39/19 26/40/19 22/35/19
f 27/41/20 23/37/20 26/40/20
f 28/42/18 25/39/18 29/43/18
f 29/43/15 22/35/15 30/44/15
f 28/42/17 30/44/17 23/37/17
f 30/44/18 21/45/18 31/46/18
f 23/37/18 31/47/18 24/48/18
f 31/46/20 20/49/20 32/50/20
f 24/48/19 32/51/19 18/52/19
f 17/27/14 24/38/15 18/28/15
f 18/30/16 32/51/16 20/31/16
f 21/33/17 17/36/17 19/34/17
f 22/35/18 26/40/18 17/36/18
f 17/27/18 26/40/18 23/37/18
f 25/39/19 27/41/19 26/40/19
f 27/41/20 28/42/20 23/37/20
f 28/42/18 27/41/18 25/39/18
f 29/43/15 25/39/15 22/35/15
f 28/42/17 29/43/17 30/44/17
f 30/44/18 22/35/18 21/45/18
f 23/37/18 30/44/18 31/47/18
f 31/46/20 21/45/20 20/49/20
f 24/48/19 31/47/19 32/51/19
f 33/53/9 34/54/9 35/55/9
f 34/56/16 36/57/16 35/58/16
f 37/59/21 35/60/22 36/57/21
f 38/61/18 33/62/18 37/59/18
f 39/63/18 40/64/18 33/53/18
f 41/65/23 39/63/23 38/61/23
f 42/66/7 43/67/7 39/63/7
f 44/68/18 41/65/18 45/69/18
f 45/69/9 38/61/9 46/70/9
f 44/68/22 46/70/21 43/67/22
f 46/70/18 37/71/18 47/72/18
f 43/67/18 47/73/18 40/74/18
f 47/72/7 36/75/7 48/76/7
f 40/74/24 48/77/23 34/78/24
f 33/53/9 40/64/9 34/54/9
f 34/56/16 48/77/16 36/57/16
f 37/59/21 33/62/22 35/60/22
f 38/61/18 39/63/18 33/62/18
f 39/63/18 43/67/18 40/64/18
f 41/65/23 42/66/23 39/63/23
f 42/66/7 44/68/7 43/67/7
f 44/68/18 42/66/18 41/65/18
f 45/69/9 41/65/9 38/61/9
f 44/68/22 45/69/21 46/70/21
f 46/70/18 38/61/18 37/71/18
f 43/67/18 46/70/18 47/73/18
f 47/72/7 37/71/7 36/75/7
f 40/74/24 47/73/23 48/77/23
f 49/79/9 50/80/9 51/81/9
f 50/82/16 52/83/16 51/84/16
f 53/85/22 51/86/22 52/83/22
f 54/87/18 49/88/18 53/85/18
f 55/89/18 56/90/18 49/79/18
f 57/91/23 55/89/23 54/87/23
f 58/92/7 59/93/7 55/89/7
f 60/94/18 57/91/18 61/95/18
f 61/95/9 54/87/9 62/96/9
f 60/94/22 62/96/22 59/93/21
f 62/96/18 53/97/18 63/98/18
f 59/93/18 63/99/18 56/100/18
f 63/98/7 52/101/7 64/102/7
f 56/100/23 64/103/23 50/104/23
f 49/79/9 56/90/9 50/80/9
f 50/82/16 64/103/16 52/83/16
f 53/85/22 49/88/22 51/86/22
f 54/87/18 55/89/18 49/88/18
f 55/89/18 59/93/18 56/90/18
f 57/91/23 58/92/23 55/89/23
f 58/92/7 60/94/7 59/93/7
f 60/94/18 58/92/18 57/91/18
f 61/95/9 57/91/9 54/87/9
f 60/94/22 61/95/22 62/96/22
f 62/96/18 54/87/18 53/97/18
f 59/93/18 62/96/18 63/99/18
f 63/98/7 53/97/7 52/101/7
f 56/100/23 63/99/24 64/103/23
f 65/105/14 66/106/14 67/107/14
f 66/108/16 68/109/16 67/110/16
f 69/111/17 67/112/17 68/109/17
f 70/113/18 65/114/18 69/111/18
f 71/115/18 72/116/18 65/105/18
f 73/117/19 71/115/19 70/113/19
f 74/118/20 75/119/25 71/115/20
f 76/120/18 73/117/18 77/121/18
f 77/121/15 70/113/15 78/122/15
f 76/120/17 78/122/17 75/119/17
f 78/122/18 69/123/18 79/124/18
f 75/119/18 79/125/18 72/126/18
f 79/124/20 68/127/20 80/128/20
f 72/126/19 80/129/19 66/130/19
f 65/105/14 72/116/14 66/106/14
f 66/108/16 80/129/16 68/109/16
f 69/111/17 65/114/17 67/112/17
f 70/113/18 71/115/18 65/114/18
f 71/115/18 75/119/18 72/116/18
f 73/117/19 74/118/19 71/115/19
f 74/118/20 76/120/25 75/119/25
f 76/120/18 74/118/18 73/117/18
f 77/121/15 73/117/15 70/113/15
f 76/120/17 77/121/17 78/122/17
f 78/122/18 70/113/18 69/123/18
f 75/119/18 78/122/18 79/125/18
f 79/124/20 69/123/20 68/127/20
f 72/126/19 79/125/19 80/129/19
