# Blender v3.2.0 OBJ File: 'castlenew.blend'
# www.blender.org
mtllib chimney.mtl
o chimney_Cartoon_house_low_poly_OBJ.001
v 114.806213 34.310562 224.504578
v 115.652588 25.715141 221.020264
v 114.837479 34.750847 221.953522
v 114.416519 34.762657 221.516693
v 114.374817 34.175613 224.918091
v 117.784286 34.668205 225.011292
v 117.363297 34.680008 224.574493
v 118.178421 25.644295 223.641235
v 115.621323 25.274857 223.571350
v 118.599396 25.632492 224.078064
v 115.189926 25.139898 223.984863
v 115.231628 25.726944 220.583466
v 118.209686 26.084583 221.090179
v 117.394577 35.120293 222.023407
v 118.641083 26.219538 220.676666
v 117.825974 35.255245 221.609924
v 114.697693 34.398842 224.628845
v 113.887009 34.862740 221.204102
v 113.834915 34.128929 225.455872
v 118.096741 34.744671 225.572388
v 117.254791 34.768284 224.698730
v 117.286057 35.208569 222.147675
v 118.148834 35.478477 221.320618
v 114.728958 34.839123 222.077759
v 117.413452 33.796219 222.001801
v 118.224136 33.332321 225.426514
v 117.382187 33.355942 224.552856
v 114.825089 32.986496 224.482971
v 113.962311 32.716583 225.309998
v 114.014420 33.450397 221.058228
v 114.856354 33.426781 221.931885
v 118.276245 34.066124 221.174744
vt 0.149700 0.868300
vt 0.545700 0.000000
vt 0.545700 0.868300
vt 0.146900 0.199700
vt 0.080900 0.815700
vt 0.080900 0.111700
vt 0.608900 0.111700
vt 0.542900 0.199700
vt 0.117100 0.000000
vt 0.513100 0.868300
vt 0.117100 0.868300
vt 0.513100 0.199700
vt 0.051100 0.111700
vt 0.579100 0.111700
vt 0.579100 0.815700
vt 0.513100 0.727700
vt 0.146900 0.868300
vt 0.542900 0.000000
vt 0.542900 0.868300
vt 0.117100 0.727700
vt 0.048300 0.000000
vt 0.576300 0.868300
vt 0.048300 0.868300
vt 0.579100 0.868300
vt 0.051100 0.000000
vt 0.579100 0.000000
vt 0.117100 0.199700
vt 0.083700 0.868300
vt 0.611700 0.000000
vt 0.611700 0.868300
vt 0.542900 0.727700
vt 0.608900 0.815700
vt 0.146900 0.727700
vt 0.114300 0.000000
vt 0.510300 0.868300
vt 0.114300 0.868300
vt 0.080900 0.868300
vt 0.608900 0.000000
vt 0.608900 0.868300
vt 0.149700 0.000000
vt 0.513100 0.000000
vt 0.146900 0.000000
vt 0.051100 0.815700
vt 0.576300 0.000000
vt 0.051100 0.868300
vt 0.083700 0.000000
vt 0.510300 0.000000
vt 0.080900 0.000000
vt 0.132000 0.176000
vt 0.000000 0.880000
vt 0.000000 0.000000
vt 0.660000 0.000000
vt 0.528000 0.176000
vt 0.528000 0.704000
vt 0.660000 0.880000
vt 0.132000 0.704000
vt 0.132000 0.704000
vt 0.000000 0.000000
vt 0.132000 0.176000
vt 0.528000 0.176000
vt 0.660000 0.000000
vt 0.660000 0.880000
vt 0.528000 0.704000
vt 0.000000 0.744300
vt 0.660000 0.880000
vt 0.000000 0.880000
vt 0.000000 0.744300
vt 0.660000 0.880000
vt 0.000000 0.880000
vt 0.660000 0.744300
vt 0.660000 0.880000
vt 0.000000 0.880000
vt 0.660000 0.744300
vt 0.132000 0.744300
vt 0.528000 0.880000
vt 0.132000 0.880000
vt 0.132000 0.744300
vt 0.528000 0.880000
vt 0.132000 0.880000
vt 0.132000 0.880000
vt 0.528000 0.744300
vt 0.528000 0.880000
vt 0.132000 0.880000
vt 0.528000 0.744300
vt 0.528000 0.880000
vt 0.000000 0.880000
vt 0.660000 0.744300
vt 0.660000 0.744300
vt 0.000000 0.744300
vt 0.000000 0.744300
vt 0.528000 0.744300
vt 0.528000 0.744300
vt 0.132000 0.744300
vt 0.132000 0.744300
vn 0.9894 0.1429 0.0270
vn -0.0894 0.9907 0.1024
vn 0.0121 0.1701 -0.9854
vn 0.0894 -0.9907 -0.1024
vn -0.0121 -0.1701 0.9854
vn -0.9894 -0.1429 -0.0270
usemtl wire_255255000.002
s 1
f 1/1/1 2/2/1 3/3/1
f 1/4/2 4/5/2 5/6/2
f 1/4/2 6/7/2 7/8/2
f 8/9/3 1/10/3 7/11/3
f 9/12/4 10/13/4 11/14/4
f 9/12/4 12/15/4 2/16/4
f 3/17/5 13/18/5 14/19/5
f 12/15/4 13/20/4 2/16/4
f 12/21/6 5/22/6 4/23/6
f 4/24/3 15/25/3 12/26/3
f 13/20/4 10/13/4 8/27/4
f 6/28/1 15/29/1 16/30/1
f 14/31/2 6/7/2 16/32/2
f 14/31/2 4/5/2 3/33/2
f 13/34/6 7/35/6 14/36/6
f 5/37/5 10/38/5 6/39/5
f 1/1/1 9/40/1 2/2/1
f 1/4/2 3/33/2 4/5/2
f 1/4/2 5/6/2 6/7/2
f 8/9/3 9/41/3 1/10/3
f 9/12/4 8/27/4 10/13/4
f 9/12/4 11/14/4 12/15/4
f 3/17/5 2/42/5 13/18/5
f 12/15/4 15/43/4 13/20/4
f 12/21/6 11/44/6 5/22/6
f 4/24/3 16/45/3 15/25/3
f 13/20/4 15/43/4 10/13/4
f 6/28/1 10/46/1 15/29/1
f 14/31/2 7/8/2 6/7/2
f 14/31/2 16/32/2 4/5/2
f 13/34/6 8/47/6 7/35/6
f 5/37/5 11/48/5 10/38/5
f 17/49/2 18/50/2 19/51/2
f 17/49/2 20/52/2 21/53/2
f 22/54/2 20/52/2 23/55/2
f 22/54/2 18/50/2 24/56/2
f 25/57/4 26/58/4 27/59/4
f 28/60/4 26/58/4 29/61/4
f 28/60/4 30/62/4 31/63/4
f 30/62/4 25/57/4 31/63/4
f 32/64/3 18/65/3 23/66/3
f 30/67/6 19/68/6 18/50/6
f 19/69/5 26/70/5 20/71/5
f 20/72/1 32/73/1 23/55/1
f 25/74/6 21/75/6 22/76/6
f 27/77/3 17/78/3 21/79/3
f 17/80/1 31/81/1 24/82/1
f 24/83/5 25/84/5 22/85/5
f 17/49/2 24/56/2 18/50/2
f 17/49/2 19/51/2 20/52/2
f 22/54/2 21/53/2 20/52/2
f 22/54/2 23/55/2 18/50/2
f 25/57/4 32/86/4 26/58/4
f 28/60/4 27/59/4 26/58/4
f 28/60/4 29/61/4 30/62/4
f 30/62/4 32/86/4 25/57/4
f 32/64/3 30/87/3 18/65/3
f 30/67/6 29/88/6 19/68/6
f 19/69/5 29/89/5 26/70/5
f 20/72/1 26/90/1 32/73/1
f 25/74/6 27/91/6 21/75/6
f 27/77/3 28/92/3 17/78/3
f 17/80/1 28/93/1 31/81/1
f 24/83/5 31/94/5 25/84/5
