# Blender v3.2.0 OBJ File: 'castlenew.blend'
# www.blender.org
mtllib door.mtl
o door_Cartoon_house_low_poly_OBJ.012
v 99.272827 15.004348 225.045441
v 99.377838 14.114910 225.137146
v 99.272827 14.114910 225.045441
v 99.198242 14.114910 225.130829
v 98.917297 14.390518 225.452484
v 98.619568 14.587727 225.793365
v 98.310776 14.702768 226.146912
v 98.310776 14.780195 226.146912
v 99.377838 15.004348 225.137146
v 98.415787 14.780195 226.238617
v 98.724579 14.587727 225.885101
v 99.022308 14.390518 225.544220
v 99.303253 14.114910 225.222534
v 98.415787 14.702768 226.238617
v 104.394867 14.587727 230.837646
v 104.086075 14.780195 231.191193
v 104.086075 14.702768 231.191193
v 105.048126 15.004348 230.089722
v 104.692596 14.390518 230.496765
v 105.048126 14.114910 230.089722
v 104.943115 15.004348 229.997986
v 103.981064 14.780195 231.099457
v 104.289856 14.587727 230.745941
v 104.587585 14.390518 230.405060
v 104.868530 14.114910 230.083374
v 104.943115 14.114910 229.997986
v 103.981064 14.702768 231.099457
v 104.973541 14.114910 230.175110
v 105.244858 15.206255 230.076416
v 99.259537 15.025721 224.848724
v 99.259537 15.206255 224.848724
v 105.244858 15.025721 230.076416
v 104.029633 14.923113 231.467743
v 104.029633 14.742579 231.467743
v 98.044312 14.923113 226.240051
v 98.044312 14.742579 226.240051
v 103.501633 -0.227880 231.330505
v 105.794479 0.668452 228.705383
v 103.501633 0.668450 231.330505
v 98.251343 0.668450 226.744812
v 98.251343 -0.227880 226.744812
v 100.544189 -0.227880 224.119659
v 105.794479 -0.227880 228.705383
v 100.544189 0.668452 224.119659
v 101.011093 8.670895 226.220245
v 101.174698 8.631661 226.324799
v 101.030090 8.631661 226.198486
v 100.978668 8.583611 226.257355
v 100.996521 8.722027 226.236938
v 101.155701 8.670895 226.346558
v 101.141129 8.722027 226.363220
v 101.087677 8.749624 226.424438
v 101.101425 8.660305 226.408691
v 101.196823 8.606998 226.299469
v 101.052216 8.606998 226.173157
v 101.123276 8.583611 226.383667
v 101.151779 8.524763 226.351044
v 101.184967 8.487768 226.313049
v 101.220566 8.598584 226.272278
v 101.075958 8.598584 226.145996
v 101.220566 8.475142 226.272278
v 101.075958 8.475142 226.145996
v 101.040359 8.487768 226.186737
v 101.007172 8.524763 226.224731
v 100.956818 8.660305 226.282379
v 100.943069 8.749624 226.298126
v 100.987350 8.781571 226.247437
v 100.938385 8.845469 226.303497
v 100.984238 8.845469 226.251007
v 101.082993 8.845469 226.429810
v 100.987350 8.909365 226.247437
v 100.943069 8.941312 226.298126
v 100.996521 8.968910 226.236938
v 101.087677 8.941312 226.424438
v 101.131958 8.781571 226.373718
v 101.128845 8.845469 226.377319
v 101.101425 9.030624 226.408691
v 101.131958 8.909365 226.373718
v 101.141129 8.968910 226.363220
v 101.123276 9.107326 226.383667
v 101.011093 9.020035 226.220245
v 101.155701 9.020035 226.346558
v 101.174698 9.059275 226.324799
v 101.196823 9.083937 226.299469
v 101.151779 9.166174 226.351044
v 100.978668 9.107326 226.257355
v 101.220566 9.092344 226.272278
v 100.956818 9.030624 226.282379
v 101.052216 9.083937 226.173157
v 101.030090 9.059275 226.198486
v 101.075958 9.092344 226.145996
v 101.075958 9.215788 226.145996
v 101.184967 9.203170 226.313049
v 101.040359 9.203170 226.186737
v 101.220566 9.215788 226.272278
v 101.007172 9.166174 226.224731
v 100.289642 0.668452 225.470764
v 104.719162 0.668452 228.876831
v 104.489868 0.668452 229.139343
v 100.289642 14.113461 225.470764
v 100.518936 0.668452 225.208252
v 100.518936 14.113461 225.208252
v 104.719162 14.113461 228.876831
v 104.489868 14.113461 229.139343
v 99.535339 15.009791 225.274719
v 99.535339 0.668452 225.274719
v 100.060364 0.668452 225.733276
v 100.060364 14.113461 225.733276
v 104.785629 15.009791 229.860443
v 100.544189 15.009791 224.119659
v 100.544189 0.668452 224.119659
v 101.069214 14.113461 224.578247
v 105.794479 15.009791 228.705383
v 105.269440 14.113461 228.246796
v 104.260590 14.113461 229.401855
v 105.269440 0.668452 228.246796
v 104.260590 0.668452 229.401855
v 105.794479 0.668452 228.705383
v 104.785629 0.668452 229.860443
v 101.069214 0.668452 224.578247
vt 0.460000 1.000000
vt 0.451600 0.000000
vt 0.460000 0.000000
vt 0.000000 1.000000
vt 0.035700 0.000000
vt 0.170000 0.309900
vt 0.312300 0.531600
vt 0.460000 0.660900
vt 0.460000 0.748000
vt 0.000000 0.000000
vt 0.008400 1.000000
vt 0.000000 0.748000
vt 0.147700 0.531600
vt 0.460000 1.000000
vt 0.290000 0.309900
vt 0.424300 0.000000
vt 0.451600 0.630400
vt 0.460000 0.321000
vt 0.460000 0.630400
vt 0.451600 0.922500
vt 0.460000 0.922500
vt 0.451600 1.000000
vt 0.460000 0.000000
vt 0.451600 0.321000
vt 0.451600 0.000000
vt 0.000000 0.748000
vt 0.008400 0.660900
vt 0.008400 0.748000
vt 0.451600 1.000000
vt 0.000000 0.000000
vt 0.008400 0.000000
vt 0.000000 0.660900
vt 0.460000 0.000000
vt 0.460000 1.000000
vt 0.000000 0.660900
vt 0.147600 0.531600
vt 0.000000 0.748000
vt 0.000000 0.660900
vt 0.460000 1.000000
vt 0.290000 0.309900
vt 0.460000 0.000000
vt 0.000000 0.000000
vt 0.008400 1.000000
vt 0.000000 1.000000
vt 0.451600 0.000000
vt 0.460000 0.000000
vt 0.312400 0.531600
vt 0.460000 0.748000
vt 0.000000 1.000000
vt 0.170000 0.309900
vt 0.035700 0.000000
vt 0.000000 0.000000
vt 0.008400 0.321000
vt 0.000000 0.630400
vt 0.000000 0.321000
vt 0.008400 0.000000
vt 0.460000 0.660900
vt 0.451600 0.748000
vt 0.451600 0.660900
vt 0.000000 1.000000
vt 0.008400 0.922500
vt 0.008400 1.000000
vt 0.000000 0.922500
vt 0.008400 0.630400
vt 0.424300 0.000000
vt 0.008400 0.000000
vt 0.451600 1.000000
vt 0.460000 0.660900
vt 0.000000 0.000000
vt 0.460000 0.748000
vt 0.000000 0.450000
vt 1.130000 0.274800
vt 1.130000 0.450000
vt 2.129900 0.274800
vt 0.999900 0.175200
vt 0.999900 -0.000000
vt 0.000000 0.398200
vt 1.130000 0.848200
vt 0.000000 0.848200
vt -0.999900 0.274800
vt 0.130100 0.175200
vt -0.999900 0.450000
vt 1.130000 0.398200
vt 0.000000 0.848200
vt 0.000000 0.398200
vt 1.130000 -0.000000
vt 0.000000 0.175200
vt 0.000000 -0.000000
vt 0.000000 0.274800
vt 2.129900 0.450000
vt 1.130000 0.398200
vt 0.130100 -0.000000
vt 1.130000 0.848200
vt 1.130000 0.175200
vt -0.169800 0.279900
vt 0.830200 0.734400
vt -0.169800 0.734400
vt 1.000000 0.830200
vt -0.000000 -0.169800
vt 1.000000 -0.169800
vt -0.000000 0.279900
vt 1.000000 0.734400
vt -0.000000 0.734400
vt 0.000000 -0.169800
vt 1.000000 0.830200
vt 0.000000 0.830200
vt 0.169800 0.279900
vt 1.169800 0.734400
vt 0.169800 0.734400
vt 0.000000 0.279900
vt 1.000000 0.734400
vt 0.000000 0.734400
vt 0.830200 0.279900
vt 0.000000 0.830200
vt 1.000000 0.279900
vt 1.000000 -0.169800
vt 1.169800 0.279900
vt 1.000000 0.279900
vt 0.000000 0.115300
vt 0.393700 0.196900
vt 0.000000 0.196900
vt 0.000000 0.000000
vt 0.000000 0.000000
vt 0.000000 0.000000
vt 0.000000 0.052700
vt 0.393700 0.115300
vt 0.000000 0.000000
vt 0.000000 0.000000
vt 0.000000 0.000000
vt 0.000000 0.000000
vt 0.393700 0.291800
vt 0.000000 0.291800
vt 0.000000 0.000000
vt 0.000000 0.000000
vt 0.000000 0.000000
vt 0.000000 0.000000
vt 0.000000 0.000000
vt 0.393700 0.393700
vt 0.000000 0.393700
vt 0.000000 0.000000
vt 0.000000 0.000000
vt 0.393700 0.393700
vt 0.393700 0.000000
vt 0.000000 0.000000
vt 0.000000 0.000000
vt 0.000000 0.000000
vt 0.000000 0.000000
vt 0.000000 0.000000
vt 0.000000 0.000000
vt 0.000000 0.000000
vt 0.000000 0.000000
vt 0.000000 0.000000
vt 0.000000 0.000000
vt 0.000000 0.000000
vt 0.000000 0.000000
vt 0.000000 0.000000
vt 0.000000 0.000000
vt 0.000000 0.000000
vt 0.000000 0.000000
vt 0.000000 0.000000
vt 0.000000 0.000000
vt 0.000000 0.000000
vt 0.000000 0.000000
vt 0.000000 0.145900
vt 0.393700 0.196900
vt 0.000000 0.196900
vt 0.393700 0.247800
vt 0.000000 0.247800
vt 0.393700 0.295300
vt 0.000000 0.000000
vt 0.000000 0.000000
vt 0.393700 0.115300
vt 0.000000 0.295300
vt 0.000000 0.000000
vt 0.000000 0.000000
vt 0.000000 0.000000
vt 0.000000 0.000000
vt 0.000000 0.000000
vt 0.000000 0.000000
vt 0.000000 0.000000
vt 0.393700 0.291800
vt 0.000000 0.196900
vt 0.393700 0.196900
vt 0.393700 0.393700
vt 0.000000 0.291800
vt 0.000000 0.000000
vt 0.000000 0.000000
vt 0.000000 0.000000
vt 0.000000 0.000000
vt 0.000000 0.000000
vt 0.000000 0.000000
vt 0.000000 0.000000
vt 0.000000 0.000000
vt 0.000000 0.000000
vt 0.000000 0.115300
vt 0.393700 0.145900
vt 0.393700 0.052700
vt 0.000000 0.393700
vt 0.000000 0.393700
vt 1.000000 0.000000
vt 0.000000 1.000000
vt 0.000000 0.000000
vt 1.000000 0.000000
vt 0.000000 1.000000
vt 0.000000 0.000000
vt 1.000000 1.000000
vt 0.000000 0.000000
vt 1.000000 1.000000
vt 0.000000 0.000000
vt 1.000000 0.000000
vt 1.000000 1.000000
vt 0.000000 1.000000
vt 0.000000 0.000000
vt 0.000000 1.000000
vt 1.000000 1.000000
vt 1.000000 1.000000
vt 0.000000 1.000000
vt 1.000000 0.000000
vt 1.000000 0.000000
vt 0.000000 1.000000
vt 0.000000 0.000000
vt 0.100000 0.000000
vt 0.100000 0.937500
vt 1.000000 1.000000
vt 1.000000 0.000000
vt 0.000000 1.000000
vt 0.000000 0.000000
vt 1.000000 1.000000
vt 0.000000 0.000000
vt 1.000000 0.000000
vt 0.900000 0.937500
vt 1.000000 0.000000
vt 1.000000 1.000000
vt 0.000000 1.000000
vt 0.100000 0.937500
vt 0.900000 0.000000
vt 0.100000 1.000000
vt 0.100000 0.000000
vt 0.000000 0.000000
vt 1.000000 0.937500
vt 0.000000 0.937500
vt 1.000000 0.937500
vt 0.000000 0.000000
vt 1.000000 0.000000
vt 0.000000 0.000000
vt 0.900000 0.937500
vt 0.100000 0.000000
vt 0.000000 1.000000
vt 0.000000 0.000000
vt 1.000000 0.000000
vt 0.900000 0.000000
vt 0.000000 1.000000
vt 1.000000 0.000000
vt 1.000000 1.000000
vt 0.900000 1.000000
vt 0.900000 0.000000
vt 0.900000 0.000000
vt 0.900000 1.000000
vt 1.000000 0.000000
vt 0.000000 0.937500
vt 0.100000 0.000000
vt 0.100000 1.000000
vt 1.000000 1.000000
vn 0.6577 0.0000 -0.7533
vn 0.6578 0.0000 -0.7532
vn -0.7532 0.0000 -0.6578
vn -0.0779 0.9930 0.0892
vn 0.7531 0.0000 0.6579
vn 0.7532 0.0000 0.6578
vn -0.2540 -0.9225 0.2907
vn -0.1678 -0.9669 0.1920
vn -0.2951 -0.8938 0.3378
vn 0.0000 -1.0000 -0.0000
vn -0.1231 -0.9823 0.1410
vn -0.1677 -0.9669 0.1920
vn -0.6577 0.0000 0.7533
vn -0.2950 -0.8938 0.3378
vn 0.6579 0.0000 -0.7531
vn -0.0779 0.9930 0.0891
vn -0.7531 0.0000 -0.6579
vn -0.7531 0.0000 -0.6580
vn -0.1677 -0.9669 0.1921
vn -0.2539 -0.9225 0.2908
vn -0.1678 -0.9669 0.1921
vn -0.1232 -0.9823 0.1410
vn -0.6579 0.0000 0.7531
vn -0.2951 -0.8938 0.3377
vn -0.2539 -0.9225 0.2907
vn 0.7531 -0.0001 0.6579
vn 0.0779 -0.9930 -0.0892
vn -0.6578 0.0000 0.7532
vn -0.0000 1.0000 0.0000
vn 0.4003 0.7936 -0.4583
vn 0.3273 0.8675 -0.3746
vn 0.3271 0.8676 -0.3744
vn -0.7531 0.0001 -0.6579
vn -0.7530 0.0001 -0.6580
vn 0.5219 0.6087 -0.5975
vn 0.5220 0.6084 -0.5978
vn 0.5219 0.6088 -0.5975
vn 0.7532 0.0004 0.6578
vn 0.7531 -0.0002 0.6579
vn 0.2516 0.9240 -0.2881
vn 0.2517 0.9239 -0.2881
vn 0.7532 -0.0001 0.6578
vn 0.7533 -0.0000 0.6577
vn 0.7531 0.0001 0.6579
vn 0.0858 0.9914 -0.0983
vn 0.0858 0.9915 -0.0982
vn 0.0858 0.9914 -0.0984
vn 0.7532 0.0000 0.6577
vn -0.7529 -0.0000 -0.6581
vn -0.7530 0.0000 -0.6580
vn -0.7531 -0.0001 -0.6579
vn -0.7530 -0.0001 -0.6580
vn -0.4004 -0.7934 0.4584
vn -0.3299 -0.8651 0.3777
vn -0.3301 -0.8650 0.3780
vn -0.1714 -0.9655 0.1962
vn -0.1715 -0.9654 0.1963
vn -0.0859 -0.9914 0.0984
vn -0.0858 -0.9915 0.0983
vn -0.7532 0.0002 -0.6577
vn -0.5699 -0.4993 0.6526
vn -0.5220 -0.6086 0.5976
vn -0.7532 0.0001 -0.6578
vn -0.6354 -0.2585 0.7276
vn -0.5700 -0.4994 0.6524
vn -0.6355 -0.2585 0.7275
vn -0.6522 -0.1306 0.7467
vn -0.6523 -0.1306 0.7467
vn -0.7533 0.0000 -0.6577
vn -0.6355 0.2586 0.7275
vn -0.6523 0.1305 0.7466
vn -0.6523 0.1306 0.7466
vn 0.7533 0.0001 0.6577
vn -0.5700 0.4994 0.6525
vn -0.6356 0.2585 0.7275
vn 0.7535 0.0002 0.6574
vn 0.6353 0.2594 -0.7274
vn 0.6522 0.1303 -0.7467
vn 0.6523 0.1306 -0.7467
vn 0.6521 -0.1306 -0.7468
vn 0.6353 -0.2592 -0.7274
vn 0.6352 -0.2595 -0.7274
vn 0.6076 -0.3829 -0.6958
vn 0.5219 -0.6087 -0.5976
vn 0.5220 -0.6085 -0.5977
vn 0.5220 -0.6087 -0.5975
vn 0.7529 0.0001 0.6581
vn 0.7532 0.0002 0.6578
vn -0.3300 0.8651 0.3778
vn -0.4004 0.7934 0.4585
vn 0.7532 -0.0001 0.6577
vn -0.5221 0.6085 0.5976
vn -0.5701 0.4993 0.6524
vn 0.2516 -0.9240 -0.2881
vn 0.3271 -0.8677 -0.3744
vn 0.3271 -0.8675 -0.3746
vn 0.0858 -0.9914 -0.0983
vn 0.0859 -0.9914 -0.0983
vn -0.1716 0.9654 0.1963
vn -0.0859 0.9914 0.0983
vn -0.0858 0.9914 0.0984
vn -0.1714 0.9655 0.1962
vn -0.3302 0.8650 0.3779
vn -0.7531 -0.0001 -0.6580
vn 0.4004 -0.7935 -0.4583
vn 0.4004 -0.7934 -0.4585
vn 0.6353 0.2593 -0.7274
vn 0.6076 0.3829 -0.6959
vn 0.6077 0.3830 -0.6957
vn 0.4004 0.7935 -0.4584
vn 0.5221 0.6083 -0.5978
vn -0.4004 -0.7935 0.4584
vn 0.6522 -0.1302 -0.7468
vn 0.6076 -0.3830 -0.6958
vn 0.5221 -0.6085 -0.5977
vn 0.2518 -0.9239 -0.2881
vn 0.0858 -0.9915 -0.0983
vn -0.6578 -0.0000 0.7531
usemtl wire_255255000.006
s 1
f 1/1/1 2/2/2 3/3/2
f 1/4/3 4/5/3 5/6/3
f 6/7/3 1/4/3 5/6/3
f 7/8/3 8/9/3 1/4/3
f 8/10/4 9/11/4 1/4/4
f 10/12/5 11/13/6 9/14/6
f 12/15/6 9/14/6 11/13/6
f 13/16/6 9/14/6 12/15/6
f 12/17/7 6/18/8 5/19/7
f 5/19/7 13/20/9 12/17/7
f 4/21/10 2/22/10 13/20/10
f 7/23/11 11/24/12 14/25/11
f 8/26/13 14/27/13 10/28/13
f 1/1/1 9/29/1 2/2/2
f 1/4/3 3/30/3 4/5/3
f 6/7/3 7/8/3 1/4/3
f 8/10/4 10/31/4 9/11/4
f 10/12/5 14/32/5 11/13/6
f 13/16/6 2/33/6 9/14/6
f 12/17/7 11/24/12 6/18/8
f 5/19/7 4/21/14 13/20/9
f 4/21/10 3/34/10 2/22/10
f 7/23/11 6/18/8 11/24/12
f 8/26/13 7/35/13 14/27/13
f 15/36/6 16/37/6 17/38/6
f 18/39/6 19/40/6 20/41/5
f 20/42/2 21/43/15 18/44/15
f 18/39/4 22/45/16 16/46/16
f 23/47/3 22/48/3 21/49/3
f 24/50/3 23/47/3 21/49/3
f 25/51/17 21/49/3 26/52/18
f 23/53/19 19/54/20 15/55/21
f 15/55/21 27/56/22 23/53/19
f 17/57/23 22/58/23 27/59/23
f 20/60/10 25/61/10 26/62/10
f 28/63/24 24/64/25 25/61/24
f 19/40/6 28/65/26 20/41/5
f 15/36/6 18/39/6 16/37/6
f 18/39/6 15/36/6 19/40/6
f 20/42/2 26/66/2 21/43/15
f 18/39/4 21/67/4 22/45/16
f 23/47/3 27/68/3 22/48/3
f 25/51/17 24/50/3 21/49/3
f 23/53/19 24/64/25 19/54/20
f 15/55/21 17/69/22 27/56/22
f 17/57/23 16/70/23 22/58/23
f 20/60/10 28/63/10 25/61/10
f 28/63/24 19/54/20 24/64/25
f 29/71/2 30/72/2 31/73/2
f 32/74/6 33/75/6 34/76/6
f 34/77/27 30/78/27 32/79/27
f 30/80/3 35/81/3 31/82/3
f 33/83/4 31/84/4 35/85/4
f 34/86/28 35/87/28 36/88/28
f 29/71/2 32/89/2 30/72/2
f 32/74/6 29/90/6 33/75/6
f 34/77/27 36/91/27 30/78/27
f 30/80/3 36/92/3 35/81/3
f 33/83/4 29/93/4 31/84/4
f 34/86/28 33/94/28 35/87/28
f 37/95/6 38/96/6 39/97/6
f 38/98/29 40/99/29 39/100/29
f 41/101/28 39/102/28 40/103/28
f 37/104/10 42/105/10 43/106/10
f 42/107/3 40/108/3 44/109/3
f 43/110/2 44/111/2 38/112/2
f 37/95/6 43/113/6 38/96/6
f 38/98/29 44/114/29 40/99/29
f 41/101/28 37/115/28 39/102/28
f 37/104/10 41/116/10 42/105/10
f 42/107/3 41/117/3 40/108/3
f 43/110/2 42/118/2 44/111/2
f 45/119/30 46/120/31 47/121/32
f 45/122/33 48/123/17 49/124/34
f 49/125/35 50/126/36 45/119/37
f 50/127/5 51/128/38 52/129/6
f 53/130/39 50/127/5 52/129/6
f 47/121/32 54/131/40 55/132/41
f 56/133/26 46/134/42 53/130/39
f 54/135/43 57/136/44 58/137/44
f 55/132/45 59/138/46 60/139/47
f 59/140/43 58/137/44 61/141/48
f 60/142/2 61/141/2 62/143/1
f 60/144/49 63/145/50 64/146/51
f 64/146/51 55/147/52 60/144/49
f 56/133/53 64/146/54 57/136/55
f 57/136/55 63/145/56 58/137/57
f 58/137/57 62/148/58 61/141/59
f 48/123/17 47/149/60 55/147/52
f 65/150/34 49/124/34 48/123/17
f 53/130/61 48/123/62 56/133/62
f 66/151/63 67/152/17 65/150/34
f 52/129/64 65/150/65 53/130/61
f 68/153/33 69/154/17 66/151/63
f 66/151/66 70/155/67 68/153/68
f 71/156/50 72/157/17 73/158/69
f 74/159/70 68/153/71 70/155/72
f 75/160/42 52/129/6 51/128/38
f 70/155/6 76/161/42 74/159/73
f 77/162/74 72/157/75 74/159/70
f 74/159/73 78/163/76 77/162/48
f 75/164/77 69/165/78 76/166/79
f 76/166/80 71/167/81 78/168/82
f 73/169/83 78/168/82 71/167/81
f 77/162/48 79/170/6 80/171/44
f 81/172/84 79/173/85 73/169/86
f 82/174/87 80/171/44 79/170/6
f 80/171/44 83/175/88 84/176/6
f 85/177/89 86/178/90 80/171/90
f 85/177/5 84/176/6 87/179/91
f 80/171/92 88/180/93 77/162/74
f 89/181/94 83/182/95 90/183/96
f 91/184/97 84/185/97 89/181/98
f 92/186/2 87/179/2 91/187/1
f 87/179/91 93/188/6 85/177/5
f 94/189/99 95/190/100 92/186/101
f 91/187/50 94/189/17 92/186/17
f 93/188/102 96/191/103 85/177/89
f 89/192/34 96/191/17 94/189/17
f 86/178/17 90/193/18 88/180/104
f 88/180/104 81/194/51 72/157/17
f 90/183/96 82/195/105 81/172/106
f 81/194/51 73/158/69 72/157/17
f 67/196/107 51/197/108 49/125/109
f 45/119/30 50/126/110 46/120/31
f 45/122/33 47/149/60 48/123/17
f 49/125/35 51/197/111 50/126/36
f 53/130/39 46/134/42 50/127/5
f 47/121/32 46/120/31 54/131/40
f 56/133/26 57/136/44 46/134/42
f 54/135/43 46/134/42 57/136/44
f 55/132/45 54/131/46 59/138/46
f 59/140/43 54/135/43 58/137/44
f 60/142/2 59/198/2 61/141/2
f 60/144/49 62/148/50 63/145/50
f 64/146/51 48/123/17 55/147/52
f 56/133/53 48/123/112 64/146/54
f 57/136/55 64/146/54 63/145/56
f 58/137/57 63/145/56 62/148/58
f 65/150/34 67/152/17 49/124/34
f 53/130/61 65/150/65 48/123/62
f 66/151/63 69/154/17 67/152/17
f 52/129/64 66/151/66 65/150/65
f 68/153/33 71/156/50 69/154/17
f 66/151/66 52/129/64 70/155/67
f 71/156/50 68/153/33 72/157/17
f 74/159/70 72/157/75 68/153/71
f 75/160/42 70/155/6 52/129/6
f 70/155/6 75/160/42 76/161/42
f 77/162/74 88/180/93 72/157/75
f 74/159/73 76/161/42 78/163/76
f 75/164/77 67/196/107 69/165/78
f 76/166/80 69/165/113 71/167/81
f 73/169/83 79/173/114 78/168/82
f 77/162/48 78/163/76 79/170/6
f 81/172/84 82/195/115 79/173/85
f 82/174/87 83/175/88 80/171/44
f 85/177/89 96/191/103 86/178/90
f 85/177/5 80/171/44 84/176/6
f 80/171/92 86/178/92 88/180/93
f 89/181/94 84/185/116 83/182/95
f 91/184/97 87/199/117 84/185/97
f 92/186/2 95/190/2 87/179/2
f 87/179/91 95/190/6 93/188/6
f 94/189/99 93/188/102 95/190/100
f 91/187/50 89/192/34 94/189/17
f 93/188/102 94/189/99 96/191/103
f 89/192/34 90/193/18 96/191/17
f 86/178/17 96/191/17 90/193/18
f 88/180/104 90/193/18 81/194/51
f 90/183/96 83/182/95 82/195/105
f 67/196/107 75/164/77 51/197/108
f 97/200/10 98/201/10 99/202/10
f 99/203/28 100/204/28 97/205/28
f 100/206/17 101/207/3 97/200/3
f 102/208/2 98/209/2 101/210/2
f 99/202/5 103/211/5 104/212/5
f 100/213/29 103/211/29 102/214/29
f 97/200/10 101/215/10 98/201/10
f 99/203/28 104/216/28 100/204/28
f 100/206/17 102/214/17 101/207/3
f 102/208/2 103/217/2 98/209/2
f 99/202/5 98/218/5 103/211/5
f 100/213/29 104/219/29 103/211/29
f 105/220/28 106/221/28 107/222/28
f 105/220/28 108/223/118 109/224/28
f 109/225/29 110/226/29 105/227/29
f 105/228/3 111/229/3 106/230/3
f 112/231/15 111/232/2 110/233/2
f 112/231/15 113/234/2 114/235/2
f 108/236/10 114/237/10 115/238/10
f 107/239/6 112/240/6 108/241/6
f 115/242/3 116/243/3 117/244/3
f 118/245/2 114/235/2 113/234/2
f 115/246/28 109/224/28 108/223/118
f 117/247/10 118/248/10 119/249/10
f 119/250/28 109/224/28 117/251/28
f 109/252/6 118/253/6 113/254/6
f 106/230/10 120/255/10 107/256/10
f 105/220/28 107/222/28 108/223/118
f 109/225/29 113/254/29 110/226/29
f 105/228/3 110/226/3 111/229/3
f 112/231/15 120/257/2 111/232/2
f 112/231/15 110/233/2 113/234/2
f 108/236/10 112/258/10 114/237/10
f 107/239/6 120/259/6 112/240/6
f 115/242/3 114/260/3 116/243/3
f 118/245/2 116/261/2 114/235/2
f 115/246/28 117/251/28 109/224/28
f 117/247/10 116/262/10 118/248/10
f 109/252/6 119/249/6 118/253/6
f 106/230/10 111/263/10 120/255/10
