# Blender v3.2.0 OBJ File: 'castlenew.blend'
# www.blender.org
mtllib window.mtl
o window_jendela3_Cartoon_house_low_poly_OBJ.009
v 102.691460 16.802467 207.484070
v 99.231018 14.333994 211.866058
v 102.899582 14.333996 207.665833
v 99.125221 14.334064 211.773651
v 99.272049 11.852699 211.901917
v 99.356689 9.538601 211.975830
v 99.377388 11.852636 211.993896
v 102.940613 11.852700 207.701660
v 103.025238 9.538604 207.775635
v 103.045952 11.852637 207.793701
v 103.130302 9.538604 207.867371
v 102.793785 14.334066 207.573425
v 99.022896 16.802467 211.684265
v 102.585014 16.802467 207.391083
v 98.916451 16.802467 211.591309
v 99.461754 9.538601 212.067596
v 102.710754 27.002060 226.937561
v 100.840424 21.642658 225.118866
v 100.748718 21.642658 225.223877
v 104.672806 21.642658 228.651245
v 102.802460 27.002060 226.832550
v 104.764511 21.642658 228.546234
v 117.987686 9.622871 228.248535
v 121.740875 11.852700 224.122223
v 118.072311 11.852699 228.322449
v 117.966980 11.852636 228.230438
v 117.882614 9.622871 228.156769
v 121.656250 9.622874 224.048309
v 121.635544 11.852637 224.030212
v 121.551178 9.622874 223.956543
v 118.113342 14.333994 228.358276
v 121.781906 14.333996 224.158051
v 118.219147 14.334064 228.450684
v 118.321472 16.802467 228.540070
v 121.990036 16.802467 224.339844
v 122.096481 16.802467 224.432831
v 118.427917 16.802467 228.633057
v 121.887711 14.334066 224.250488
vt 1.000000 1.000000
vt 0.000000 0.660200
vt 1.000000 0.660200
vt 0.016100 0.660200
vt 0.010700 0.660200
vt 0.018200 0.318600
vt 0.022600 0.000000
vt 0.023600 0.318600
vt 0.000000 0.318600
vt 0.981800 0.318600
vt 0.983900 0.660200
vt 0.977400 0.000000
vt 0.976400 0.318600
vt 0.972100 0.000000
vt 0.989300 0.660200
vt 0.994500 1.000000
vt 0.005500 0.000000
vt 0.000000 1.000000
vt 0.000000 0.000000
vt 1.000000 1.000000
vt 0.000000 0.660200
vt 1.000000 0.660200
vt 0.000000 0.318600
vt 1.000000 0.318600
vt 0.005500 1.000000
vt 0.000000 1.000000
vt 0.000000 0.000000
vt 1.000000 0.000000
vt 1.000000 0.000000
vt 0.000000 0.000000
vt 0.972100 0.000000
vt 0.977400 1.000000
vt 0.972100 1.000000
vt 0.000000 1.000000
vt 0.027900 0.000000
vt 1.000000 0.318600
vt 1.000000 1.000000
vt 0.005500 1.000000
vt 0.977400 0.000000
vt 1.000000 1.000000
vt 0.000000 0.000000
vt 1.000000 0.000000
vt 0.500000 1.000000
vt 0.000000 0.000000
vt 1.000000 0.000000
vt -0.000000 0.000000
vt 1.000000 1.000000
vt 0.000000 1.000000
vt 1.000000 0.000000
vt 0.500000 1.000000
vt 0.000000 0.000000
vt 0.000000 1.000000
vt 0.000000 1.000000
vt 1.000000 0.000000
vt 1.000000 1.000000
vt 0.000000 0.011600
vt 1.000000 0.318600
vt 0.000000 0.318600
vt 0.977400 0.011600
vt 0.976400 0.318600
vt 0.972100 0.011600
vt 0.027900 0.000000
vt 0.022600 1.000000
vt 0.022600 0.000000
vt 0.023600 0.318600
vt 0.022600 0.011600
vt 0.027900 0.011600
vt 0.000000 0.011600
vt 1.000000 0.318600
vt 0.000000 0.318600
vt 1.000000 0.660200
vt 0.016100 0.660200
vt 0.018200 0.318600
vt 0.983900 0.660200
vt 0.981800 0.318600
vt 0.989300 0.660200
vt 0.994500 1.000000
vt 0.000000 0.660200
vt 1.000000 1.000000
vt 0.000000 1.000000
vt 0.994500 0.000000
vt 1.000000 1.000000
vt 0.994500 1.000000
vt 0.000000 0.660200
vt 0.000000 1.000000
vt 0.005500 1.000000
vt 0.010700 0.660200
vt 1.000000 0.660200
vt 1.000000 0.011600
vt 0.027900 1.000000
vt 1.000000 0.011600
vt 1.000000 1.000000
vt 1.000000 0.000000
vt 0.000000 1.000000
vn 0.7455 0.1425 0.6511
vn 0.7476 0.1214 0.6530
vn -0.6578 0.0000 0.7532
vn -0.6575 0.0000 0.7535
vn -0.6589 0.0000 0.7522
vn -0.6579 0.0000 0.7531
vn -0.6576 0.0000 0.7534
vn 0.7507 0.0812 0.6557
vn 0.6598 0.0000 -0.7514
vn 0.6578 0.0000 -0.7532
vn 0.6577 -0.0000 -0.7533
vn 0.6576 0.0000 -0.7534
vn 0.0000 1.0000 0.0000
vn -0.7454 -0.1429 -0.6511
vn -0.7476 -0.1217 -0.6529
vn -0.7507 -0.0814 -0.6556
vn -0.7517 -0.0623 -0.6565
vn -0.7517 -0.0623 -0.6566
vn 0.7517 0.0621 0.6566
vn 0.0000 -1.0000 -0.0000
vn -0.6387 0.5300 -0.5578
vn -0.6387 0.5299 -0.5578
vn 0.6387 0.5300 0.5578
vn 0.7516 -0.0647 0.6565
vn 0.7506 -0.0826 0.6556
vn 0.6579 -0.0000 -0.7531
vn -0.7516 0.0645 -0.6565
vn -0.7506 0.0823 -0.6556
vn -0.7476 0.1214 -0.6530
vn 0.6580 -0.0000 -0.7531
vn -0.6577 0.0000 0.7533
vn -0.6580 0.0000 0.7530
vn -0.7455 0.1425 -0.6511
vn 0.7476 -0.1217 0.6529
vn 0.7454 -0.1429 0.6511
usemtl wire_255255000.005
s 1
f 1/1/1 2/2/2 3/3/2
f 2/4/3 4/5/4 5/6/5
f 2/4/3 5/6/5 6/7/6
f 6/7/6 7/8/7 2/4/3
f 7/9/8 3/3/2 2/2/2
f 8/10/9 3/11/10 9/12/11
f 9/12/11 10/13/10 11/14/11
f 12/15/12 1/16/10 8/10/9
f 13/17/13 14/18/13 15/19/13
f 15/20/14 12/21/15 4/22/15
f 4/22/15 8/23/16 5/24/16
f 13/25/3 15/26/3 4/5/4
f 5/24/16 9/27/17 6/28/18
f 11/29/19 7/9/8 16/30/19
f 16/31/20 9/32/20 11/33/20
f 1/1/1 13/34/1 2/2/2
f 2/4/3 13/25/3 4/5/4
f 6/7/6 16/35/6 7/8/7
f 7/9/8 10/36/8 3/3/2
f 8/10/9 1/16/10 3/11/10
f 9/12/11 3/11/10 10/13/10
f 12/15/12 14/37/10 1/16/10
f 13/17/13 1/38/13 14/18/13
f 15/20/14 14/18/14 12/21/15
f 4/22/15 12/21/15 8/23/16
f 5/24/16 8/23/16 9/27/17
f 11/29/19 10/36/8 7/9/8
f 16/31/20 6/39/20 9/32/20
f 17/40/21 18/41/21 19/42/22
f 17/43/3 19/44/3 20/45/3
f 20/46/23 21/47/23 17/48/23
f 18/49/10 21/50/10 22/51/10
f 19/42/20 22/52/20 20/46/20
f 17/40/21 21/53/21 18/41/21
f 20/46/23 22/54/23 21/47/23
f 19/42/20 18/55/20 22/52/20
f 23/56/24 24/57/25 25/58/25
f 23/59/6 26/60/6 27/61/6
f 27/62/20 28/63/20 23/64/20
f 29/65/26 28/66/26 30/67/26
f 30/68/27 26/69/28 29/70/28
f 31/71/29 29/70/28 26/69/28
f 32/72/30 24/73/26 29/65/26
f 31/74/31 25/75/6 33/76/31
f 33/76/31 34/77/32 31/74/31
f 32/78/29 34/79/33 35/80/33
f 34/81/13 36/82/13 35/83/13
f 33/84/34 36/82/35 37/85/35
f 35/86/10 38/87/26 32/72/30
f 25/58/25 38/88/34 33/84/34
f 23/56/24 28/89/24 24/57/25
f 23/59/6 25/75/6 26/60/6
f 27/62/20 30/90/20 28/63/20
f 29/65/26 24/73/26 28/66/26
f 30/68/27 27/91/27 26/69/28
f 31/71/29 32/78/29 29/70/28
f 32/72/30 38/87/26 24/73/26
f 31/74/31 26/60/6 25/75/6
f 33/76/31 37/92/32 34/77/32
f 32/78/29 31/71/29 34/79/33
f 34/81/13 37/93/13 36/82/13
f 33/84/34 38/88/34 36/82/35
f 35/86/10 36/94/10 38/87/26
f 25/58/25 24/57/25 38/88/34
