# Blender v3.2.0 OBJ File: 'castlenew.blend'
# www.blender.org
mtllib atap.mtl
o Atap.001_house_Cube.032
v -112.251617 26.272045 211.601761
v -101.948364 26.751720 202.543930
v -99.923615 28.079712 204.931122
v -110.313049 27.543518 213.887329
v -113.414032 24.300774 210.231247
v -103.162445 24.692829 201.112518
v -98.723724 28.862465 206.345810
v -109.164215 28.292961 215.241837
v -114.753021 21.752792 208.652588
v -104.560974 22.031597 199.463669
v -115.841187 16.952669 206.998672
v -105.888641 17.018120 197.898392
v -94.554077 26.751717 211.262039
v -93.340027 24.692825 212.693466
v -104.009613 24.300766 221.319366
v -105.171997 26.272041 219.948822
v -96.578766 28.079712 208.874817
v -107.110535 27.543518 217.663208
v -97.778656 28.862465 207.460114
v -108.259369 28.292961 216.308716
v -102.670685 21.752785 222.898056
v -91.941559 22.031590 214.342361
v -101.399567 16.952663 224.396805
v -90.613922 17.018112 215.907700
v -119.542847 26.173027 232.150970
v -130.694672 25.991810 241.919647
v -132.702484 28.260208 239.499878
v -121.465240 27.412170 229.834167
v -128.924103 24.429920 242.907623
v -118.405670 24.221622 233.570221
v -133.892456 29.022949 238.065979
v -122.604523 28.142456 228.461304
v -117.099396 21.696632 235.211960
v -116.072906 16.925480 236.984833
v -128.142609 22.290619 245.116730
v -126.879364 17.300907 246.806335
v -126.623199 26.056763 223.805328
v -138.089752 25.870365 233.203064
v -138.747589 24.268604 231.328674
v -127.811127 24.067173 222.484039
v -124.668091 27.359573 226.058960
v -136.047760 28.205273 235.556854
v -134.837616 29.007427 236.951874
v -123.509491 28.127594 227.394592
v -129.183014 21.498199 220.968933
v -140.763367 22.083370 230.240601
v -130.516083 16.679085 219.589783
v -142.155670 17.050049 228.800140
v -126.385162 26.056763 223.603455
v -127.573090 24.067173 222.282166
v -114.290009 24.067173 211.015915
v -113.102081 26.056763 212.337219
v -124.430084 27.359573 225.857071
v -111.147003 27.359577 214.590836
v -123.271454 28.127594 227.192719
v -109.988403 28.127594 215.926483
v -115.661926 21.498199 209.500809
v -128.945007 21.498199 220.767059
v -116.268188 16.691017 208.978348
v -129.551239 16.691017 220.244568
v -130.278076 16.679085 219.387909
v -116.994995 16.679085 208.121658
v -118.167664 24.221622 233.368347
v -104.884583 24.221619 222.102112
v -103.578278 21.696632 223.743835
v -116.861359 21.696632 235.010071
v -119.304810 26.173027 231.949081
v -106.021729 26.173031 220.682846
v -121.227203 27.412170 229.632294
v -107.944122 27.412174 218.366058
v -122.366486 28.142456 228.259399
v -109.083405 28.142456 216.993179
v -116.561676 16.913548 235.926270
v -103.278595 16.913548 224.660034
v -115.834869 16.925480 236.782959
v -102.551788 16.925480 225.516724
v -114.753021 21.752792 208.652588
v -115.114471 16.952667 207.855499
v -102.670685 21.752785 222.898056
v -102.126312 16.952663 223.539978
v -117.099396 21.696629 235.211960
v -116.799683 16.913548 236.128143
v -129.183014 21.498199 220.968933
v -129.789276 16.691017 220.446472
vt 0.785377 0.614051
vt 0.783020 0.760305
vt 0.838398 0.759558
vt 0.838398 0.613335
vt 0.753584 0.614480
vt 0.749814 0.760753
vt 0.494932 0.918889
vt 0.493535 0.772673
vt 0.526357 0.772798
vt 0.526357 0.919009
vt 0.365113 0.430323
vt 0.331918 0.429333
vt 0.333330 0.575649
vt 0.365113 0.576597
vt 0.753568 0.761075
vt 0.805197 0.907089
vt 0.749814 0.907300
vt 0.806594 0.760873
vt 0.838018 0.906964
vt 0.838018 0.760753
vt 0.529583 0.614626
vt 0.527215 0.772673
vt 0.582838 0.771663
vt 0.582838 0.613659
vt 0.493535 0.765484
vt 0.497426 0.615542
vt 0.342848 0.924836
vt 0.341445 0.766838
vt 0.374411 0.767139
vt 0.374411 0.925124
vt 0.257379 0.590881
vt 0.257379 0.432808
vt 0.224360 0.439451
vt 0.225983 0.589444
vt 0.053854 0.616286
vt 0.106637 0.615698
vt 0.105247 0.773700
vt 0.050118 0.774313
vt 0.137918 0.773338
vt 0.137918 0.615351
vt 0.050118 0.429691
vt 0.081542 0.429145
vt 0.081542 0.614805
vt 0.050118 0.615351
vt 0.752321 0.427675
vt 0.699536 0.612980
vt 0.752321 0.613335
vt 0.699536 0.427321
vt 0.668255 0.612771
vt 0.668254 0.427111
vt 0.443400 0.615691
vt 0.479546 0.800645
vt 0.443400 0.801351
vt 0.479546 0.614985
vt 0.735825 0.614662
vt 0.735825 0.800321
vt 0.749815 0.798995
vt 0.749815 0.613335
vt 0.117688 0.428439
vt 0.151555 0.427111
vt 0.151555 0.612771
vt 0.117688 0.614099
vt 0.922963 0.185660
vt 0.922964 0.000000
vt 0.885860 0.000700
vt 0.885860 0.186360
vt 0.614992 0.427653
vt 0.582828 0.612771
vt 0.582828 0.427111
vt 0.614992 0.613312
vt 0.497402 0.427999
vt 0.497402 0.613659
vt 0.444140 0.613312
vt 0.444140 0.427653
vt 0.901630 0.561765
vt 0.870066 0.376310
vt 0.870066 0.561970
vt 0.901630 0.376105
vt 0.357238 0.762957
vt 0.341445 0.766838
vt 0.341445 0.581178
vt 0.618509 0.800019
vt 0.582838 0.803899
vt 0.582838 0.618239
vt 0.618509 0.614359
vt 0.357238 0.577297
vt 0.295294 0.910645
vt 0.331893 0.765772
vt 0.331893 0.912095
vt 0.293668 0.764258
vt 0.260650 0.906713
vt 0.257379 0.762821
vt 0.296720 0.574558
vt 0.293680 0.428193
vt 0.261964 0.573521
vt 0.257379 0.427111
vt 0.876917 0.774356
vt 0.913966 0.626470
vt 0.913966 0.776462
vt 0.841419 0.769126
vt 0.875575 0.616128
vt 0.838398 0.613335
vt 0.189873 0.587713
vt 0.186872 0.429500
vt 0.156059 0.585426
vt 0.151555 0.427111
vn 0.2822 -0.9199 0.2723
vn 0.5056 -0.6733 0.5395
vn 0.5056 -0.6732 0.5395
vn 0.2811 -0.9206 0.2710
vn -0.4498 -0.6732 -0.5869
vn -0.4497 -0.6733 -0.5869
vn -0.2226 -0.9199 -0.3229
vn -0.2215 -0.9206 -0.3216
vn -0.3780 -0.8110 -0.4466
vn -0.2885 -0.9231 -0.2544
vn -0.4113 -0.7724 -0.4839
vn -0.4936 -0.6810 -0.5409
vn -0.2873 -0.9238 -0.2530
vn 0.4214 -0.7572 0.4991
vn 0.4620 -0.6653 0.5864
vn 0.2166 -0.9148 0.3409
vn 0.3878 -0.8002 0.4574
vn 0.2154 -0.9156 0.3396
vn 0.4825 -0.6659 0.5689
vn 0.2589 -0.9164 0.3052
vn 0.2577 -0.9172 0.3038
vn 0.5063 -0.6224 0.5969
vn -0.6383 0.1623 -0.7525
vn 0.6012 -0.3691 0.7088
vn -0.4976 -0.6389 -0.5867
vn -0.4733 -0.6816 -0.5580
vn -0.2462 -0.9247 -0.2903
vn -0.2451 -0.9255 -0.2889
vn 0.6359 0.1834 0.7497
vn 0.5958 0.3892 0.7025
vn 0.5833 -0.5109 0.6315
vn 0.5177 -0.6520 0.5539
vn 0.5176 -0.6519 0.5542
vn 0.5839 -0.5099 0.6318
vn 0.6259 -0.3775 0.6825
vn 0.6259 -0.3786 0.6818
vn -0.4622 -0.6520 -0.6010
vn -0.5283 -0.5097 -0.6791
vn -0.4621 -0.6519 -0.6013
vn -0.5281 -0.5100 -0.6789
vn -0.5710 -0.3786 -0.7284
vn -0.5771 -0.5254 -0.6253
vn -0.4592 -0.7316 -0.5039
vn -0.5059 -0.6602 -0.5552
vn -0.6273 -0.3865 -0.6761
vn -0.5771 -0.5422 -0.6106
vn -0.6274 -0.3875 -0.6755
vn 0.4329 -0.7155 0.5484
vn 0.5303 -0.5056 0.6806
vn 0.4738 -0.6441 0.6005
vn 0.5162 -0.5235 0.6778
vn 0.5698 -0.3679 0.7349
usemtl Material_001
s off
f 1/1/1 2/2/1 3/3/1
f 1/1/1 3/3/1 4/4/1
f 5/5/2 2/2/2 1/1/2
f 5/5/3 6/6/3 2/2/3
f 4/7/4 3/8/4 7/9/4
f 4/7/4 7/9/4 8/10/4
f 13/11/5 14/12/5 15/13/5
f 13/11/6 15/13/6 16/14/6
f 16/15/7 17/16/7 13/17/7
f 16/15/7 18/18/7 17/16/7
f 18/18/8 19/19/8 17/16/8
f 18/18/8 20/20/8 19/19/8
f 25/21/9 26/22/9 27/23/9
f 25/21/10 27/23/10 28/24/10
f 29/25/11 26/22/11 25/21/11
f 29/25/12 25/21/12 30/26/12
f 28/27/13 27/28/13 31/29/13
f 28/27/13 31/29/13 32/30/13
f 37/31/14 38/32/14 39/33/14
f 37/31/15 39/33/15 40/34/15
f 37/35/16 41/36/16 42/37/16
f 37/35/17 42/37/17 38/38/17
f 41/36/18 43/39/18 42/37/18
f 41/36/18 44/40/18 43/39/18
f 49/41/19 50/42/19 51/43/19
f 49/41/19 51/43/19 52/44/19
f 52/45/20 53/46/20 49/47/20
f 52/45/20 54/48/20 53/46/20
f 54/48/21 55/49/21 53/46/21
f 54/48/21 56/50/21 55/49/21
f 50/51/22 57/52/22 51/53/22
f 50/51/22 58/54/22 57/52/22
f 58/55/23 57/56/23 59/57/23
f 58/55/23 59/57/23 60/58/23
f 58/59/24 61/60/24 62/61/24
f 58/59/24 62/61/24 57/62/24
f 63/63/25 64/64/25 65/65/25
f 63/63/25 65/65/25 66/66/25
f 67/67/26 64/68/26 63/69/26
f 67/67/26 68/70/26 64/68/26
f 69/71/27 70/72/27 68/73/27
f 69/71/27 68/73/27 67/74/27
f 71/75/28 70/76/28 69/77/28
f 71/75/28 72/78/28 70/76/28
f 66/79/29 73/80/29 74/81/29
f 66/82/30 75/83/30 76/84/30
f 66/82/30 76/84/30 65/85/30
f 66/79/29 74/81/29 65/86/29
s 1
f 9/87/31 6/88/32 5/89/33
f 9/87/31 10/90/34 6/88/32
f 11/91/35 12/92/36 10/90/34
f 11/91/35 10/90/34 9/87/31
f 14/12/37 21/93/38 15/13/39
f 14/12/37 22/94/40 21/93/38
f 22/94/40 23/95/41 21/93/38
f 22/94/40 24/96/41 23/95/41
f 33/97/42 29/98/43 30/99/44
f 34/100/45 35/101/46 33/97/42
f 33/97/42 35/101/46 29/98/43
f 34/100/45 36/102/47 35/101/46
f 39/33/48 45/103/49 40/34/50
f 39/33/48 46/104/51 45/103/49
f 46/104/51 47/105/52 45/103/49
f 46/104/51 48/106/52 47/105/52
l 77 78
l 79 80
l 81 82
l 83 84
