# Blender v3.2.0 OBJ File: 'castlenew.blend'
# www.blender.org
mtllib window.mtl
o Castle_OBJ.037_Castle_OBJ.380
v 39.334663 16.856596 -0.600883
v 40.823750 12.833873 -0.600883
v 40.823750 17.063618 -0.600883
v 38.037930 16.255804 -0.600883
v 37.008839 15.320053 -0.600883
v 36.348122 14.140937 -0.600883
v 36.120453 12.833873 -0.600883
v 36.120453 5.472013 -0.600887
v 40.823750 5.472013 -0.600887
v 45.475399 5.472013 -0.600887
v 45.475399 12.833873 -0.600883
v 45.247730 14.140937 -0.600883
v 44.587013 15.320053 -0.600883
v 43.557922 16.255804 -0.600883
v 42.261189 16.856596 -0.600883
v -57.139034 66.379417 -4.225960
v -53.653439 66.379417 -4.225960
v -57.139034 72.037117 -4.225960
v -57.139034 66.379417 -3.907795
v -57.139034 72.037117 -3.907795
v -57.503460 66.379417 -3.907795
v -57.139034 66.000343 -3.907795
v -53.653439 66.379417 -3.907795
v -53.653439 66.000343 -3.907795
v -53.653439 66.000343 -4.225960
v -53.653439 60.464024 -4.225964
v -57.139034 66.000343 -4.225960
v -57.139034 60.464024 -4.225964
v -57.139034 60.464024 -3.907801
v -57.503460 60.464024 -3.907801
v -57.503460 60.464024 -4.225964
v -57.503460 66.000343 -3.907795
v -57.503460 66.000343 -4.225960
v -60.789631 66.000343 -3.907795
v -60.789631 66.000343 -4.225960
v -60.789631 66.379417 -3.907795
v -60.789631 66.379417 -4.225960
v -57.503460 66.379417 -4.225960
v -60.789631 72.037117 -4.225960
v -57.503460 72.037117 -4.225960
v -57.503460 72.037117 -3.907795
v -60.789631 60.464024 -4.225964
v -53.653439 72.037117 -4.225960
v -57.066959 66.379417 -16.959480
v -57.066959 72.037117 -16.959480
v -60.515152 66.379417 -16.959480
v -57.066959 66.379417 -17.277641
v -57.066959 72.037117 -17.277641
v -56.706444 66.379417 -17.277641
v -57.066959 66.000343 -17.277641
v -60.515152 66.379417 -17.277641
v -60.515152 66.000343 -17.277641
v -60.515152 66.000343 -16.959480
v -57.066959 66.000343 -16.959480
v -60.515152 60.464027 -16.959484
v -57.066959 60.464027 -16.959484
v -57.066959 60.464027 -17.277645
v -56.706444 60.464027 -17.277645
v -56.706444 66.000343 -17.277641
v -56.706444 60.464027 -16.959484
v -53.455532 60.464027 -16.959484
v -56.706444 66.000343 -16.959480
v -53.455532 66.000343 -16.959480
v -53.455532 66.000343 -17.277641
v -53.455532 66.379417 -17.277641
v -53.455532 66.379417 -16.959480
v -53.455532 72.037117 -16.959480
v -56.706444 66.379417 -16.959480
v -56.706444 72.037117 -16.959480
v -56.706444 72.037117 -17.277641
v -60.515152 72.037117 -16.959480
v -34.213093 32.569405 -14.868515
v -25.956930 32.569405 -14.868515
v -34.213093 42.450134 -14.868511
v -25.956930 42.450134 -14.868511
v -30.511274 61.060158 -23.715618
v -30.511274 53.717995 -23.715622
v -23.867702 61.060158 -23.715618
v -23.867702 53.717995 -23.715622
v 15.473661 61.060158 -23.715618
v 15.473661 53.717995 -23.715622
v 22.132406 61.060158 -23.715618
v 22.132406 53.717995 -23.715622
v 19.032412 32.569405 -14.868515
v 27.288576 32.569405 -14.868515
v 19.032412 42.450134 -14.868511
v 27.288576 42.450134 -14.868511
v 48.031963 66.379417 -4.225960
v 51.517559 66.379417 -4.225960
v 48.031963 72.037117 -4.225960
v 48.031963 66.379417 -3.907795
v 48.031963 72.037117 -3.907795
v 47.667538 66.379417 -3.907795
v 48.031963 66.000343 -3.907795
v 51.517559 66.379417 -3.907795
v 51.517559 66.000343 -3.907795
v 51.517559 66.000343 -4.225960
v 51.517559 60.464024 -4.225964
v 48.031963 66.000343 -4.225960
v 48.031963 60.464024 -4.225964
v 48.031963 60.464024 -3.907801
v 47.667538 60.464024 -3.907801
v 47.667538 66.000343 -3.907795
v 47.667538 60.464024 -4.225964
v 44.381367 60.464024 -4.225964
v 47.667538 66.000343 -4.225960
v 44.381367 66.000343 -4.225960
v 44.381367 66.000343 -3.907795
v 44.381367 66.379417 -3.907795
v 44.381367 66.379417 -4.225960
v 47.667538 66.379417 -4.225960
v 44.381367 72.037117 -4.225960
v 47.667538 72.037117 -4.225960
v 47.667538 72.037117 -3.907795
v 51.517559 72.037117 -4.225960
v 48.104038 66.379417 -16.959480
v 48.104038 72.037117 -16.959480
v 44.655846 66.379417 -16.959480
v 48.104038 66.379417 -17.277641
v 48.104038 72.037117 -17.277641
v 48.464554 66.379417 -17.277641
v 48.104038 66.000343 -17.277641
v 44.655846 66.379417 -17.277641
v 44.655846 66.000343 -17.277641
v 44.655846 66.000343 -16.959480
v 48.104038 66.000343 -16.959480
v 44.655846 60.464027 -16.959484
v 48.104038 60.464027 -16.959484
v 48.104038 60.464027 -17.277645
v 48.464554 60.464027 -17.277645
v 48.464554 60.464027 -16.959484
v 48.464554 66.000343 -17.277641
v 48.464554 66.000343 -16.959480
v 51.715466 66.000343 -17.277641
v 51.715466 66.000343 -16.959480
v 51.715466 66.379417 -17.277641
v 51.715466 66.379417 -16.959480
v 51.715466 72.037117 -16.959480
v 48.464554 66.379417 -16.959480
v 48.464554 72.037117 -16.959480
v 48.464554 72.037117 -17.277641
v 51.715466 60.464027 -16.959484
v 44.655846 72.037117 -16.959480
v 48.036503 83.069229 -49.046516
v 52.651424 83.069229 -49.046516
v 48.036503 91.210655 -49.046509
v 48.036503 83.069229 -48.625259
v 48.036503 91.210655 -48.625259
v 52.651424 83.069229 -48.625259
v 47.554005 83.069229 -48.625259
v 48.036503 82.523750 -48.625259
v 48.036503 74.556984 -48.625259
v 47.554005 82.523750 -48.625259
v 48.036503 82.523750 -49.046516
v 52.651424 82.523750 -48.625259
v 52.651424 82.523750 -49.046516
v 52.651424 74.556984 -49.046516
v 48.036503 74.556984 -49.046516
v 47.554005 82.523750 -49.046516
v 43.203106 82.523750 -48.625259
v 47.554005 74.556984 -48.625259
v 47.554005 74.556984 -49.046516
v 43.203106 74.556984 -49.046516
v 43.203106 82.523750 -49.046516
v 43.203106 83.069229 -48.625259
v 43.203106 83.069229 -49.046516
v 47.554005 83.069229 -49.046516
v 43.203106 91.210655 -49.046509
v 47.554005 91.210655 -49.046509
v 47.554005 91.210655 -48.625259
v 52.651424 91.210655 -49.046509
v 48.131931 83.069229 -65.905693
v 48.131931 91.210663 -65.905685
v 43.566517 83.069229 -65.905693
v 48.131931 83.069229 -66.326935
v 43.566517 83.069229 -66.326935
v 48.131931 91.210663 -66.326935
v 48.609249 83.069229 -66.326935
v 48.131931 82.523758 -66.326935
v 48.609249 82.523758 -66.326935
v 48.131931 82.523758 -65.905693
v 43.566517 82.523758 -66.326935
v 48.131931 74.556992 -66.326935
v 48.131931 74.556992 -65.905693
v 48.609249 74.556992 -66.326935
v 48.609249 74.556992 -65.905693
v 52.913456 74.556992 -65.905693
v 48.609249 82.523758 -65.905693
v 52.913456 82.523758 -65.905693
v 52.913456 82.523758 -66.326935
v 52.913456 83.069229 -66.326935
v 52.913456 83.069229 -65.905693
v 52.913456 91.210663 -65.905685
v 48.609249 83.069229 -65.905693
v 48.609249 91.210663 -65.905685
v 48.609249 91.210663 -66.326935
v 43.566517 74.556992 -65.905693
v 43.566517 82.523758 -65.905693
v 43.566517 91.210663 -65.905685
v -57.140499 83.069229 -49.046509
v -52.525574 83.069229 -49.046509
v -57.140499 91.210655 -49.046501
v -57.140499 83.069229 -48.625252
v -57.140499 91.210655 -48.625244
v -57.623001 83.069229 -48.625252
v -57.140499 82.523750 -48.625252
v -52.525574 83.069229 -48.625252
v -52.525574 82.523750 -48.625252
v -52.525574 82.523750 -49.046509
v -52.525574 74.556984 -49.046509
v -57.140499 82.523750 -49.046509
v -57.140499 74.556984 -49.046509
v -57.140499 74.556984 -48.625252
v -57.623001 74.556984 -48.625252
v -57.623001 82.523750 -48.625252
v -57.623001 74.556984 -49.046509
v -61.973888 74.556984 -49.046501
v -57.623001 82.523750 -49.046509
v -61.973888 82.523750 -49.046501
v -61.973888 82.523750 -48.625252
v -61.973888 83.069229 -48.625252
v -61.973888 83.069229 -49.046501
v -57.623001 83.069229 -49.046509
v -61.973888 91.210648 -49.046494
v -57.623001 91.210655 -49.046501
v -57.623001 91.210655 -48.625244
v -52.525574 91.210655 -49.046501
v -57.045074 83.069229 -65.905670
v -57.045074 91.210655 -65.905663
v -61.610477 83.069229 -65.905670
v -57.045074 83.069229 -66.326920
v -57.045074 91.210655 -66.326912
v -56.567753 83.069229 -66.326920
v -57.045074 82.523758 -66.326920
v -61.610477 83.069229 -66.326920
v -61.610477 82.523758 -66.326920
v -61.610477 82.523758 -65.905670
v -57.045074 82.523758 -65.905670
v -61.610477 74.556992 -65.905670
v -57.045074 74.556992 -65.905670
v -57.045074 74.556992 -66.326920
v -56.567753 74.556992 -66.326920
v -56.567753 74.556992 -65.905670
v -56.567753 82.523758 -66.326920
v -56.567753 82.523758 -65.905670
v -52.263546 82.523758 -66.326920
v -52.263546 82.523758 -65.905670
v -52.263546 83.069229 -66.326920
v -52.263546 83.069229 -65.905670
v -56.567753 83.069229 -65.905670
v -52.263546 91.210655 -65.905663
v -56.567753 91.210655 -65.905663
v -56.567753 91.210655 -66.326912
v -52.263546 74.556992 -65.905670
v -61.610477 91.210655 -65.905663
v -50.492825 16.856596 -0.600861
v -49.003735 12.833873 -0.600861
v -49.003735 17.063618 -0.600861
v -51.789558 16.255804 -0.600861
v -52.818645 15.320053 -0.600861
v -53.479366 14.140937 -0.600861
v -53.707035 12.833873 -0.600861
v -53.707035 5.472013 -0.600864
v -49.003735 5.472013 -0.600864
v -44.352093 5.472013 -0.600864
v -44.352093 12.833873 -0.600861
v -44.579754 14.140937 -0.600861
v -45.240475 15.320053 -0.600861
v -46.269566 16.255804 -0.600861
v -47.566296 16.856596 -0.600861
vt 0.879454 0.924048
vt 0.915450 0.924048
vt 0.915450 0.924048
vt 0.879454 0.982477
vt 0.879454 0.924048
vt 0.915450 0.920133
vt 0.879454 0.920133
vt 0.879454 0.920133
vt 0.915450 0.862958
vt 0.879454 0.862958
vt 0.879454 0.862958
vt 0.875690 0.862958
vt 0.875690 0.920133
vt 0.875690 0.920133
vt 0.841753 0.920133
vt 0.841753 0.920133
vt 0.841753 0.924048
vt 0.875690 0.924048
vt 0.875690 0.924048
vt 0.841753 0.982477
vt 0.875690 0.982477
vt 0.875690 0.982477
vt 0.841753 0.862958
vt 0.956480 0.924434
vt 0.956480 0.982325
vt 0.956480 0.924434
vt 0.921198 0.924434
vt 0.921198 0.924434
vt 0.956480 0.920556
vt 0.921198 0.920556
vt 0.956480 0.920556
vt 0.921198 0.863908
vt 0.956480 0.863908
vt 0.956480 0.863908
vt 0.960169 0.920556
vt 0.960169 0.863908
vt 0.960169 0.920556
vt 0.993433 0.920556
vt 0.993433 0.863908
vt 0.993433 0.920556
vt 0.960169 0.924434
vt 0.993433 0.924434
vt 0.960169 0.924434
vt 0.993433 0.982325
vt 0.960169 0.982325
vt 0.960169 0.982325
vt 0.712560 0.677834
vt 0.603162 0.808758
vt 0.603162 0.677834
vt 0.446436 0.322464
vt 0.557318 0.445006
vt 0.446436 0.445006
vt 0.446257 0.322479
vt 0.557392 0.445021
vt 0.446257 0.445021
vt 0.712573 0.677780
vt 0.603175 0.808704
vt 0.603175 0.677780
vt 0.725726 0.923085
vt 0.761142 0.923085
vt 0.761142 0.923085
vt 0.725726 0.980572
vt 0.725726 0.923085
vt 0.761142 0.919233
vt 0.725726 0.919233
vt 0.725726 0.919233
vt 0.761142 0.862979
vt 0.725726 0.862979
vt 0.725726 0.862979
vt 0.722023 0.862979
vt 0.722023 0.919233
vt 0.722023 0.919233
vt 0.688632 0.919233
vt 0.688632 0.862979
vt 0.688632 0.919233
vt 0.688632 0.923085
vt 0.722023 0.923085
vt 0.722023 0.923085
vt 0.688632 0.980572
vt 0.722023 0.980572
vt 0.722023 0.980572
vt 0.571725 0.923073
vt 0.571725 0.981042
vt 0.571725 0.923073
vt 0.536394 0.923073
vt 0.536394 0.923073
vt 0.571725 0.919189
vt 0.536394 0.919189
vt 0.571725 0.919189
vt 0.536394 0.862463
vt 0.571725 0.862463
vt 0.571725 0.862463
vt 0.575419 0.919189
vt 0.575419 0.862463
vt 0.575419 0.919189
vt 0.608728 0.919189
vt 0.608728 0.919189
vt 0.575419 0.923073
vt 0.608728 0.923073
vt 0.575419 0.923073
vt 0.608728 0.981042
vt 0.575419 0.981042
vt 0.575419 0.981042
vt 0.608728 0.862463
vt 0.801911 0.923271
vt 0.834536 0.923271
vt 0.834536 0.923271
vt 0.801911 0.980826
vt 0.801911 0.923271
vt 0.801911 0.919415
vt 0.801911 0.863095
vt 0.801911 0.863095
vt 0.834536 0.919415
vt 0.801911 0.919415
vt 0.834536 0.863095
vt 0.798500 0.863095
vt 0.798500 0.919415
vt 0.798500 0.919415
vt 0.767742 0.919415
vt 0.767742 0.919415
vt 0.767742 0.863095
vt 0.767742 0.923271
vt 0.798500 0.923271
vt 0.798500 0.923271
vt 0.767742 0.980826
vt 0.798500 0.980826
vt 0.798500 0.980826
vt 0.647805 0.923034
vt 0.647805 0.981416
vt 0.647805 0.981416
vt 0.615066 0.923034
vt 0.615066 0.923034
vt 0.647805 0.861992
vt 0.647805 0.919122
vt 0.647805 0.861992
vt 0.647805 0.919122
vt 0.615066 0.919122
vt 0.651228 0.919122
vt 0.651228 0.861992
vt 0.651228 0.919122
vt 0.682094 0.919122
vt 0.682094 0.861992
vt 0.682094 0.919122
vt 0.651228 0.923034
vt 0.682094 0.923034
vt 0.651228 0.923034
vt 0.682094 0.981416
vt 0.651228 0.981416
vt 0.651228 0.981416
vt 0.615066 0.861992
vt 0.801938 0.923251
vt 0.834562 0.923251
vt 0.834562 0.923251
vt 0.801938 0.980807
vt 0.801938 0.923251
vt 0.834562 0.919395
vt 0.801938 0.919395
vt 0.801938 0.919395
vt 0.834562 0.863075
vt 0.801938 0.863075
vt 0.801938 0.863075
vt 0.798526 0.863075
vt 0.798526 0.919395
vt 0.798526 0.919395
vt 0.767768 0.919395
vt 0.767768 0.863075
vt 0.767768 0.919395
vt 0.767768 0.923251
vt 0.798526 0.923251
vt 0.798526 0.923251
vt 0.767768 0.980807
vt 0.798526 0.980807
vt 0.798526 0.980807
vt 0.647798 0.923036
vt 0.647798 0.981418
vt 0.647798 0.981418
vt 0.615059 0.923036
vt 0.615059 0.923036
vt 0.647798 0.919124
vt 0.615059 0.919124
vt 0.647798 0.919124
vt 0.615059 0.861994
vt 0.647798 0.861994
vt 0.647798 0.861994
vt 0.651222 0.919124
vt 0.651222 0.861994
vt 0.651222 0.919124
vt 0.682087 0.919124
vt 0.682087 0.919124
vt 0.651222 0.923036
vt 0.682087 0.923036
vt 0.651222 0.923036
vt 0.682087 0.981418
vt 0.651222 0.981418
vt 0.651222 0.981418
vt 0.682087 0.861994
vt 0.915450 0.982477
vt 0.879454 0.982477
vt 0.915450 0.920133
vt 0.875690 0.862958
vt 0.841753 0.924048
vt 0.956480 0.982325
vt 0.921198 0.982325
vt 0.921198 0.920556
vt 0.960169 0.863908
vt 0.993433 0.924434
vt 0.712560 0.808758
vt 0.557318 0.322464
vt 0.557392 0.322479
vt 0.712573 0.808704
vt 0.761142 0.980572
vt 0.725726 0.980572
vt 0.761142 0.919233
vt 0.722023 0.862979
vt 0.688632 0.923085
vt 0.571725 0.981042
vt 0.536394 0.981042
vt 0.536394 0.919189
vt 0.575419 0.862463
vt 0.608728 0.923073
vt 0.834536 0.980826
vt 0.801911 0.980826
vt 0.834536 0.919415
vt 0.798500 0.863095
vt 0.767742 0.923271
vt 0.647805 0.923034
vt 0.615066 0.981416
vt 0.615066 0.919122
vt 0.651228 0.861992
vt 0.682094 0.923034
vt 0.834562 0.980807
vt 0.801938 0.980807
vt 0.834562 0.919395
vt 0.798526 0.863075
vt 0.767768 0.923251
vt 0.647798 0.923036
vt 0.615059 0.981418
vt 0.615059 0.919124
vt 0.651222 0.861994
vt 0.682087 0.923036
vt 0.745661 0.835147
vt 0.785487 0.786228
vt 0.764199 0.843735
vt 0.785487 0.846695
vt 0.730950 0.821770
vt 0.721504 0.804913
vt 0.718250 0.786228
vt 0.718250 0.680985
vt 0.785487 0.680985
vt 0.851984 0.786228
vt 0.848730 0.804913
vt 0.839285 0.821770
vt 0.824574 0.835147
vt 0.806036 0.843735
vt 0.745611 0.835163
vt 0.785436 0.786244
vt 0.764149 0.843752
vt 0.785436 0.846711
vt 0.730899 0.821786
vt 0.721454 0.804930
vt 0.718200 0.786244
vt 0.718200 0.681001
vt 0.785436 0.681001
vt 0.851935 0.786244
vt 0.848680 0.804930
vt 0.839234 0.821786
vt 0.824524 0.835163
vt 0.805986 0.843752
vt 0.851984 0.680985
vt 0.851935 0.681001
vn 0.0000 1.0000 0.0000
vn 0.0000 0.0000 1.0000
vn 1.0000 0.0000 0.0000
vn 0.0000 -1.0000 0.0000
vn -1.0000 0.0000 0.0000
usemtl lambert11SG
s off
f 16/1/1 23/2/1 17/3/1
f 17/3/2 18/4/2 16/1/2
f 18/4/3 19/5/3 16/1/3
f 25/6/4 22/7/4 27/8/4
f 26/9/2 27/8/2 28/10/2
f 27/8/3 29/11/3 28/10/3
f 31/12/5 32/13/5 33/14/5
f 33/14/4 34/15/4 35/16/4
f 37/17/1 21/18/1 38/19/1
f 38/19/2 39/20/2 37/17/2
f 38/19/5 41/21/5 40/22/5
f 31/12/2 35/16/2 42/23/2
f 47/24/3 45/25/3 44/26/3
f 45/25/2 46/27/2 44/26/2
f 51/28/4 44/26/4 46/27/4
f 50/29/1 53/30/1 54/31/1
f 54/31/2 55/32/2 56/33/2
f 57/34/3 54/31/3 56/33/3
f 59/35/5 60/36/5 62/37/5
f 63/38/2 60/36/2 61/39/2
f 64/40/1 62/37/1 63/38/1
f 49/41/4 66/42/4 68/43/4
f 67/44/2 68/43/2 66/42/2
f 70/45/5 68/43/5 69/46/5
f 73/47/2 74/48/2 72/49/2
f 77/50/2 78/51/2 76/52/2
f 81/53/2 82/54/2 80/55/2
f 85/56/2 86/57/2 84/58/2
f 88/59/1 95/60/1 89/61/1
f 89/61/2 90/62/2 88/59/2
f 90/62/3 91/63/3 88/59/3
f 97/64/4 94/65/4 99/66/4
f 98/67/2 99/66/2 100/68/2
f 99/66/3 101/69/3 100/68/3
f 104/70/5 103/71/5 106/72/5
f 104/70/2 107/73/2 105/74/2
f 106/72/4 108/75/4 107/73/4
f 110/76/1 93/77/1 111/78/1
f 111/78/2 112/79/2 110/76/2
f 111/78/5 114/80/5 113/81/5
f 119/82/3 117/83/3 116/84/3
f 117/83/2 118/85/2 116/84/2
f 123/86/4 116/84/4 118/85/4
f 122/87/1 125/88/1 126/89/1
f 126/89/2 127/90/2 128/91/2
f 129/92/3 126/89/3 128/91/3
f 132/93/5 131/94/5 133/95/5
f 134/96/1 133/95/1 135/97/1
f 121/98/4 137/99/4 139/100/4
f 138/101/2 139/100/2 137/99/2
f 141/102/5 139/100/5 140/103/5
f 135/97/2 131/94/2 142/104/2
f 144/105/1 149/106/1 145/107/1
f 145/107/2 146/108/2 144/105/2
f 146/108/3 147/109/3 144/105/3
f 154/110/3 152/111/3 158/112/3
f 156/113/4 151/114/4 154/110/4
f 157/115/2 154/110/2 158/112/2
f 162/116/5 153/117/5 159/118/5
f 159/118/4 160/119/4 164/120/4
f 162/116/2 164/120/2 163/121/2
f 166/122/1 150/123/1 167/124/1
f 167/124/2 168/125/2 166/122/2
f 169/126/5 150/123/5 170/127/5
f 172/128/3 177/129/3 173/130/3
f 173/130/2 174/131/2 172/128/2
f 176/132/4 172/128/4 174/131/4
f 183/133/3 181/134/3 184/135/3
f 179/136/1 198/137/1 181/134/1
f 180/138/5 186/139/5 188/140/5
f 189/141/2 186/139/2 187/142/2
f 190/143/1 188/140/1 189/141/1
f 178/144/4 192/145/4 194/146/4
f 193/147/2 194/146/2 192/145/2
f 196/148/5 194/146/5 195/149/5
f 181/134/2 197/150/2 184/135/2
f 200/151/1 207/152/1 201/153/1
f 201/153/2 202/154/2 200/151/2
f 202/154/3 203/155/3 200/151/3
f 209/156/4 206/157/4 211/158/4
f 210/159/2 211/158/2 212/160/2
f 211/158/3 213/161/3 212/160/3
f 216/162/5 215/163/5 218/164/5
f 216/162/2 219/165/2 217/166/2
f 219/165/4 215/163/4 220/167/4
f 222/168/1 205/169/1 223/170/1
f 223/170/2 224/171/2 222/168/2
f 225/172/5 205/169/5 226/173/5
f 228/174/3 232/175/3 229/176/3
f 229/176/2 230/177/2 228/174/2
f 235/178/4 228/174/4 230/177/4
f 234/179/1 237/180/1 238/181/1
f 238/181/2 239/182/2 240/183/2
f 241/184/3 238/181/3 240/183/3
f 244/185/5 243/186/5 245/187/5
f 246/188/1 245/187/1 247/189/1
f 233/190/4 249/191/4 250/192/4
f 251/193/2 250/192/2 249/191/2
f 253/194/5 250/192/5 252/195/5
f 247/189/2 243/186/2 254/196/2
f 16/1/1 19/5/1 23/2/1
f 17/3/2 43/197/2 18/4/2
f 18/4/3 20/198/3 19/5/3
f 25/6/4 24/199/4 22/7/4
f 26/9/2 25/6/2 27/8/2
f 27/8/3 22/7/3 29/11/3
f 31/12/5 30/200/5 32/13/5
f 33/14/4 32/13/4 34/15/4
f 37/17/1 36/201/1 21/18/1
f 38/19/2 40/22/2 39/20/2
f 38/19/5 21/18/5 41/21/5
f 31/12/2 33/14/2 35/16/2
f 47/24/3 48/202/3 45/25/3
f 45/25/2 71/203/2 46/27/2
f 51/28/4 47/24/4 44/26/4
f 50/29/1 52/204/1 53/30/1
f 54/31/2 53/30/2 55/32/2
f 57/34/3 50/29/3 54/31/3
f 59/35/5 58/205/5 60/36/5
f 63/38/2 62/37/2 60/36/2
f 64/40/1 59/35/1 62/37/1
f 49/41/4 65/206/4 66/42/4
f 67/44/2 69/46/2 68/43/2
f 70/45/5 49/41/5 68/43/5
f 73/47/2 75/207/2 74/48/2
f 77/50/2 79/208/2 78/51/2
f 81/53/2 83/209/2 82/54/2
f 85/56/2 87/210/2 86/57/2
f 88/59/1 91/63/1 95/60/1
f 89/61/2 115/211/2 90/62/2
f 90/62/3 92/212/3 91/63/3
f 97/64/4 96/213/4 94/65/4
f 98/67/2 97/64/2 99/66/2
f 99/66/3 94/65/3 101/69/3
f 104/70/5 102/214/5 103/71/5
f 104/70/2 106/72/2 107/73/2
f 106/72/4 103/71/4 108/75/4
f 110/76/1 109/215/1 93/77/1
f 111/78/2 113/81/2 112/79/2
f 111/78/5 93/77/5 114/80/5
f 119/82/3 120/216/3 117/83/3
f 117/83/2 143/217/2 118/85/2
f 123/86/4 119/82/4 116/84/4
f 122/87/1 124/218/1 125/88/1
f 126/89/2 125/88/2 127/90/2
f 129/92/3 122/87/3 126/89/3
f 132/93/5 130/219/5 131/94/5
f 134/96/1 132/93/1 133/95/1
f 121/98/4 136/220/4 137/99/4
f 138/101/2 140/103/2 139/100/2
f 141/102/5 121/98/5 139/100/5
f 135/97/2 133/95/2 131/94/2
f 144/105/1 147/109/1 149/106/1
f 145/107/2 171/221/2 146/108/2
f 146/108/3 148/222/3 147/109/3
f 154/110/3 151/114/3 152/111/3
f 156/113/4 155/223/4 151/114/4
f 157/115/2 156/113/2 154/110/2
f 162/116/5 161/224/5 153/117/5
f 159/118/4 153/117/4 160/119/4
f 162/116/2 159/118/2 164/120/2
f 166/122/1 165/225/1 150/123/1
f 167/124/2 169/126/2 168/125/2
f 169/126/5 167/124/5 150/123/5
f 172/128/3 175/226/3 177/129/3
f 173/130/2 199/227/2 174/131/2
f 176/132/4 175/226/4 172/128/4
f 183/133/3 179/136/3 181/134/3
f 179/136/1 182/228/1 198/137/1
f 180/138/5 185/229/5 186/139/5
f 189/141/2 188/140/2 186/139/2
f 190/143/1 180/138/1 188/140/1
f 178/144/4 191/230/4 192/145/4
f 193/147/2 195/149/2 194/146/2
f 196/148/5 178/144/5 194/146/5
f 181/134/2 198/137/2 197/150/2
f 200/151/1 203/155/1 207/152/1
f 201/153/2 227/231/2 202/154/2
f 202/154/3 204/232/3 203/155/3
f 209/156/4 208/233/4 206/157/4
f 210/159/2 209/156/2 211/158/2
f 211/158/3 206/157/3 213/161/3
f 216/162/5 214/234/5 215/163/5
f 216/162/2 218/164/2 219/165/2
f 219/165/4 218/164/4 215/163/4
f 222/168/1 221/235/1 205/169/1
f 223/170/2 225/172/2 224/171/2
f 225/172/5 223/170/5 205/169/5
f 228/174/3 231/236/3 232/175/3
f 229/176/2 255/237/2 230/177/2
f 235/178/4 231/236/4 228/174/4
f 234/179/1 236/238/1 237/180/1
f 238/181/2 237/180/2 239/182/2
f 241/184/3 234/179/3 238/181/3
f 244/185/5 242/239/5 243/186/5
f 246/188/1 244/185/1 245/187/1
f 233/190/4 248/240/4 249/191/4
f 251/193/2 252/195/2 250/192/2
f 253/194/5 233/190/5 250/192/5
f 247/189/2 245/187/2 243/186/2
s 1
f 4/241/2 2/242/2 1/243/2
f 1/243/2 2/242/2 3/244/2
f 5/245/2 2/242/2 4/241/2
f 6/246/2 2/242/2 5/245/2
f 7/247/2 2/242/2 6/246/2
f 8/248/2 2/242/2 7/247/2
f 9/249/2 11/250/2 2/242/2
f 12/251/2 2/242/2 11/250/2
f 13/252/2 2/242/2 12/251/2
f 14/253/2 2/242/2 13/252/2
f 15/254/2 2/242/2 14/253/2
f 3/244/2 2/242/2 15/254/2
f 19/5/2 41/21/2 21/18/2
f 22/7/2 21/18/2 32/13/2
f 24/199/2 19/5/2 22/7/2
f 29/11/2 32/13/2 30/200/2
f 32/13/2 36/201/2 34/15/2
f 70/45/2 47/24/2 49/41/2
f 49/41/2 50/29/2 59/35/2
f 47/24/2 52/204/2 50/29/2
f 59/35/2 57/34/2 58/205/2
f 65/206/2 59/35/2 64/40/2
f 91/63/2 114/80/2 93/77/2
f 94/65/2 93/77/2 103/71/2
f 96/213/2 91/63/2 94/65/2
f 101/69/2 103/71/2 102/214/2
f 103/71/2 109/215/2 108/75/2
f 141/102/2 119/82/2 121/98/2
f 121/98/2 122/87/2 132/93/2
f 119/82/2 124/218/2 122/87/2
f 132/93/2 129/92/2 130/219/2
f 136/220/2 132/93/2 134/96/2
f 147/109/2 170/127/2 150/123/2
f 155/223/2 147/109/2 151/114/2
f 151/114/2 150/123/2 153/117/2
f 152/111/2 153/117/2 161/224/2
f 153/117/2 165/225/2 160/119/2
f 175/226/2 182/228/2 179/136/2
f 196/148/2 175/226/2 178/144/2
f 178/144/2 179/136/2 180/138/2
f 180/138/2 183/133/2 185/229/2
f 191/230/2 180/138/2 190/143/2
f 203/155/2 226/173/2 205/169/2
f 206/157/2 205/169/2 215/163/2
f 208/233/2 203/155/2 206/157/2
f 213/161/2 215/163/2 214/234/2
f 215/163/2 221/235/2 220/167/2
f 253/194/2 231/236/2 233/190/2
f 233/190/2 234/179/2 244/185/2
f 231/236/2 236/238/2 234/179/2
f 244/185/2 241/184/2 242/239/2
f 248/240/2 244/185/2 246/188/2
f 259/255/2 257/256/2 256/257/2
f 256/257/2 257/256/2 258/258/2
f 260/259/2 257/256/2 259/255/2
f 261/260/2 257/256/2 260/259/2
f 262/261/2 257/256/2 261/260/2
f 263/262/2 257/256/2 262/261/2
f 264/263/2 266/264/2 257/256/2
f 267/265/2 257/256/2 266/264/2
f 268/266/2 257/256/2 267/265/2
f 269/267/2 257/256/2 268/266/2
f 270/268/2 257/256/2 269/267/2
f 258/258/2 257/256/2 270/268/2
f 8/248/2 9/249/2 2/242/2
f 9/249/2 10/269/2 11/250/2
f 19/5/2 20/198/2 41/21/2
f 22/7/2 19/5/2 21/18/2
f 24/199/2 23/2/2 19/5/2
f 29/11/2 22/7/2 32/13/2
f 32/13/2 21/18/2 36/201/2
f 70/45/2 48/202/2 47/24/2
f 49/41/2 47/24/2 50/29/2
f 47/24/2 51/28/2 52/204/2
f 59/35/2 50/29/2 57/34/2
f 65/206/2 49/41/2 59/35/2
f 91/63/2 92/212/2 114/80/2
f 94/65/2 91/63/2 93/77/2
f 96/213/2 95/60/2 91/63/2
f 101/69/2 94/65/2 103/71/2
f 103/71/2 93/77/2 109/215/2
f 141/102/2 120/216/2 119/82/2
f 121/98/2 119/82/2 122/87/2
f 119/82/2 123/86/2 124/218/2
f 132/93/2 122/87/2 129/92/2
f 136/220/2 121/98/2 132/93/2
f 147/109/2 148/222/2 170/127/2
f 155/223/2 149/106/2 147/109/2
f 151/114/2 147/109/2 150/123/2
f 152/111/2 151/114/2 153/117/2
f 153/117/2 150/123/2 165/225/2
f 175/226/2 176/132/2 182/228/2
f 196/148/2 177/129/2 175/226/2
f 178/144/2 175/226/2 179/136/2
f 180/138/2 179/136/2 183/133/2
f 191/230/2 178/144/2 180/138/2
f 203/155/2 204/232/2 226/173/2
f 206/157/2 203/155/2 205/169/2
f 208/233/2 207/152/2 203/155/2
f 213/161/2 206/157/2 215/163/2
f 215/163/2 205/169/2 221/235/2
f 253/194/2 232/175/2 231/236/2
f 233/190/2 231/236/2 234/179/2
f 231/236/2 235/178/2 236/238/2
f 244/185/2 234/179/2 241/184/2
f 248/240/2 233/190/2 244/185/2
f 263/262/2 264/263/2 257/256/2
f 264/263/2 265/270/2 266/264/2
